<svg xmlns="http://www.w3.org/2000/svg" viewBox="274 214.23 498.45 632.47">
<g>
<path d="M 407.49 438.78 C409.58,441.13 411.08,443.26 410.83,443.50 C410.58,443.75 404.78,438.23 397.94,431.22 C377.97,410.78 375.16,402.81 378.58,376.23 C379.73,367.26 377.51,363.31 363.58,349.63 C349.20,335.50 347.03,334.01 340.83,334.00 C336.47,334.00 335.68,334.43 329.03,340.54 C321.24,347.69 318.78,349.00 313.15,349.00 C308.20,349.00 304.21,346.84 293.75,338.50 L 285.03 331.54 L 289.97 326.52 C297.66,318.71 298.00,317.28 297.98,293.28 C297.96,275.28 297.71,271.96 296.12,268.46 C293.90,263.56 289.12,259.37 282.75,256.71 C280.14,255.62 278.00,254.38 278.00,253.94 C278.00,252.85 309.45,223.96 313.30,221.52 C315.45,220.15 318.16,219.53 321.97,219.53 C328.66,219.53 333.79,222.32 337.20,227.80 C339.40,231.35 339.52,232.60 340.07,258.00 C340.89,295.74 341.16,296.36 369.63,324.71 C394.00,348.97 396.67,350.44 410.09,346.96 C426.83,342.61 441.48,346.28 454.34,358.03 C457.44,360.86 460.36,363.02 460.84,362.84 C463.33,361.87 495.36,327.39 496.66,324.28 C499.44,317.61 496.40,310.77 488.95,306.97 C485.35,305.14 482.97,305.00 455.20,305.00 C422.62,305.00 419.82,305.40 409.40,311.50 C407.06,312.88 404.86,314.00 404.52,314.00 C404.18,314.00 404.04,302.64 404.20,288.75 C404.48,265.03 404.64,263.15 406.82,257.75 C408.14,254.49 411.34,249.61 414.22,246.45 C421.91,238.04 429.77,234.43 443.38,233.06 C449.26,232.47 451.51,231.83 452.24,230.54 C452.77,229.59 455.07,227.96 457.35,226.93 C461.31,225.13 465.42,225.04 546.75,225.02 C593.64,225.01 632.00,225.26 632.00,225.58 C632.00,225.90 631.07,229.80 629.94,234.24 C625.15,252.98 614.87,268.71 599.66,280.52 L 595.82 283.50 L 598.41 291.18 C600.16,296.35 601.00,301.00 601.00,305.43 C601.00,309.04 601.42,312.00 601.94,312.00 C602.45,312.00 607.29,308.92 612.69,305.15 C618.08,301.38 632.17,291.56 644.00,283.32 C655.83,275.08 673.72,262.53 683.76,255.42 C693.80,248.31 703.11,241.82 704.46,241.00 C705.80,240.18 711.08,236.55 716.20,232.95 C717.28,232.18 718.31,231.46 719.29,230.77 C735.88,219.08 738.55,217.20 739.28,217.77 C739.47,217.92 739.53,218.22 739.66,218.56 C740.63,221.09 739.22,243.37 737.46,253.50 C736.59,258.45 734.79,266.08 733.46,270.46 C732.08,274.98 731.41,278.81 731.90,279.30 C732.39,279.79 734.13,279.47 735.90,278.55 C738.80,277.05 739.08,277.06 739.66,278.57 C740.64,281.12 739.25,305.50 737.55,315.70 C736.70,320.76 734.90,328.40 733.54,332.68 C732.17,336.97 731.45,340.85 731.92,341.32 C732.39,341.79 734.14,341.46 735.84,340.59 C737.52,339.71 739.21,339.00 739.60,339.00 C740.48,339.00 739.44,366.49 738.49,368.01 C738.04,368.74 737.33,368.26 736.51,366.68 C735.54,364.81 735.48,363.11 736.27,359.65 C737.07,356.15 737.02,354.73 736.03,353.54 C734.89,352.16 734.48,352.27 732.43,354.48 C730.56,356.50 729.48,356.86 726.81,356.40 C722.51,355.66 717.67,353.86 716.88,352.70 C716.52,352.18 715.25,352.33 713.88,353.06 C710.95,354.63 706.72,354.97 705.87,353.71 C705.52,353.19 706.68,350.21 708.45,347.09 C711.80,341.16 712.33,339.87 717.10,326.17 C720.04,317.73 720.75,313.00 719.08,313.00 C718.58,313.00 708.79,319.60 697.33,327.67 C685.88,335.74 671.61,345.75 665.64,349.92 C638.38,368.94 618.15,383.18 614.22,386.09 C611.87,387.84 609.71,389.05 609.43,388.76 C608.88,388.22 614.18,383.44 616.02,382.83 C616.62,382.63 617.22,381.73 617.35,380.83 C617.48,379.94 618.24,378.39 619.04,377.41 C619.88,376.38 619.98,375.93 619.27,376.35 C617.45,377.45 614.00,375.23 614.00,372.96 C614.00,371.88 613.58,371.00 613.07,371.00 C611.07,371.00 606.44,373.17 605.33,374.62 C604.69,375.46 603.57,376.26 602.83,376.39 C599.31,377.01 597.00,378.27 597.00,379.57 C597.00,380.36 596.34,381.00 595.53,381.00 C594.73,381.00 592.49,382.58 590.57,384.50 C588.64,386.42 586.67,388.00 586.19,388.00 C585.71,388.00 584.79,389.17 584.14,390.60 C583.47,392.06 582.39,392.98 581.65,392.70 C579.92,392.03 580.19,395.32 582.06,397.58 C583.37,399.17 583.32,399.23 581.49,398.26 C580.38,397.67 578.58,396.19 577.49,394.98 L 575.50 392.78 L 579.14 389.64 C581.14,387.91 589.69,381.80 598.14,376.05 C615.71,364.10 621.81,359.87 631.10,353.23 C642.58,345.01 662.19,331.29 671.00,325.29 C683.04,317.09 700.28,299.55 706.31,289.37 C710.71,281.95 717.73,264.25 719.46,256.25 C720.48,251.49 718.79,251.99 707.93,259.67 C696.05,268.06 643.23,305.17 636.37,309.94 C633.55,311.90 620.27,321.18 606.87,330.57 C581.09,348.63 556.35,365.83 553.78,367.50 C546.93,371.95 531.76,383.63 528.55,386.93 C524.51,391.09 522.79,391.98 523.07,389.75 C523.43,387.03 522.95,384.91 522.11,385.43 C521.63,385.73 520.64,385.27 519.93,384.41 C518.86,383.12 518.88,382.69 520.06,381.94 C521.99,380.72 525.00,380.76 525.00,382.00 C525.00,382.55 525.67,383.00 526.50,383.00 C528.40,383.00 528.43,381.60 526.56,380.05 C525.77,379.39 524.98,377.87 524.81,376.68 C524.42,373.91 521.25,374.23 518.64,377.31 C517.61,378.51 516.38,379.56 515.89,379.62 C515.40,379.69 514.59,379.81 514.10,379.88 C513.60,379.94 511.55,382.48 509.54,385.50 C505.26,391.95 503.96,392.75 507.22,386.93 C511.15,379.91 520.89,370.17 531.39,362.75 C577.68,330.02 577.17,330.43 581.24,322.15 C587.41,309.62 585.30,297.82 574.55,284.69 C571.93,281.49 569.95,278.73 570.14,278.56 C570.34,278.38 572.97,277.00 576.00,275.48 C587.13,269.90 600.89,257.61 606.01,248.69 C607.64,245.83 608.99,243.00 608.99,242.39 C609.00,241.60 589.22,241.27 538.25,241.23 C470.35,241.18 467.33,241.25 463.39,243.11 C461.14,244.17 458.86,246.00 458.34,247.17 C457.48,249.09 456.52,249.32 448.94,249.46 C442.58,249.57 439.27,250.17 435.50,251.86 C425.11,256.53 421.60,262.81 420.50,278.77 C419.62,291.32 420.26,292.69 425.81,290.17 C429.00,288.73 433.56,288.50 459.50,288.51 C488.25,288.53 489.73,288.62 495.08,290.77 C502.65,293.82 508.33,298.93 511.62,305.66 C513.89,310.29 514.37,312.61 514.37,318.89 C514.37,331.40 512.43,334.49 489.70,358.20 C465.04,383.93 464.92,384.07 459.58,394.08 L 455.11 402.45 L 455.46 397.97 C455.66,395.51 456.14,392.26 456.53,390.75 C457.08,388.59 456.88,388.00 455.62,388.00 C454.67,388.00 454.00,388.82 454.00,390.00 C454.00,391.11 453.33,392.00 452.50,392.00 C451.00,387.35 451.45,386.00 452.00,386.00 C453.15,386.00 453.34,380.00 452.23,378.50 C451.83,377.95 450.88,377.37 450.11,377.20 C449.05,376.98 448.86,377.75 449.30,380.44 C449.66,382.65 449.43,384.26 448.68,384.74 C448.03,385.16 446.49,386.94 445.25,388.71 C443.43,391.31 443.00,393.27 443.00,399.07 C443.00,405.60 442.72,406.56 439.80,410.25 C437.27,413.45 436.52,415.45 436.20,419.92 C435.86,424.68 435.22,426.20 432.15,429.69 C429.38,432.83 428.05,433.66 426.63,433.11 C425.05,432.50 425.51,431.90 429.62,429.23 L 434.48 426.07 L 435.66 415.78 C437.01,404.05 439.27,396.38 444.41,386.18 C446.38,382.26 448.00,378.36 448.00,377.53 C448.00,375.04 441.49,368.59 435.80,365.44 C431.18,362.87 429.48,362.50 422.50,362.50 C415.61,362.50 413.86,362.87 409.92,365.19 C404.77,368.22 398.98,374.22 396.40,379.19 C395.45,381.01 394.47,385.71 394.21,389.64 C393.54,400.10 395.98,404.59 410.42,419.40 C416.81,425.95 421.80,431.54 421.51,431.82 C421.23,432.11 419.95,431.36 418.68,430.17 C417.41,428.98 415.84,428.00 415.20,428.00 C414.55,428.00 412.89,426.20 411.50,424.00 C410.11,421.80 408.41,420.00 407.71,420.00 C407.01,420.00 405.24,418.76 403.77,417.25 C402.30,415.74 400.29,413.79 399.30,412.92 C396.73,410.67 393.01,405.89 391.72,403.19 C390.85,401.35 390.10,401.01 388.06,401.50 C383.41,402.64 382.47,404.36 383.99,408.96 C385.42,413.29 387.00,414.32 387.00,410.92 C387.00,408.12 389.16,408.95 390.83,412.38 C391.79,414.34 391.86,415.47 391.08,416.40 C390.29,417.36 390.52,418.16 392.00,419.50 C393.10,420.50 394.00,421.86 394.00,422.54 C394.00,423.22 395.14,424.52 396.53,425.43 C397.92,426.34 398.80,427.52 398.47,428.05 C398.15,428.57 399.19,430.24 400.79,431.75 C402.40,433.26 405.41,436.42 407.49,438.78 ZM 629.28 370.17 C629.93,370.57 631.18,370.25 632.06,369.45 C632.94,368.65 634.63,368.00 635.83,368.00 C638.35,368.00 638.37,367.92 636.84,364.55 C635.23,361.02 638.46,354.03 641.70,354.01 C643.84,354.00 643.86,354.10 642.39,357.61 C641.56,359.59 641.06,361.40 641.28,361.62 C641.94,362.27 648.51,357.50 648.39,356.46 C648.33,355.93 646.98,354.87 645.39,354.10 C643.80,353.32 642.24,352.30 641.92,351.82 C641.61,351.34 640.12,352.08 638.62,353.47 C637.12,354.86 635.45,356.00 634.91,356.00 C633.78,356.00 627.85,360.00 626.80,361.48 C626.41,362.03 626.95,363.38 628.00,364.50 C629.30,365.89 629.62,366.99 629.01,367.99 C628.43,368.92 628.53,369.71 629.28,370.17 ZM 694.79 390.14 C691.10,392.67 690.08,392.48 692.72,389.75 C704.54,377.57 707.26,375.58 713.50,374.59 L 717.50 373.96 L 714.50 376.47 C712.85,377.85 708.35,381.07 704.50,383.63 C700.65,386.19 696.28,389.12 694.79,390.14 ZM 710.70 407.25 C709.03,409.86 707.28,412.00 706.82,412.00 C706.35,412.00 707.06,410.31 708.39,408.25 C709.73,406.19 712.32,400.57 714.16,395.76 C716.00,390.95 717.72,387.01 718.00,387.01 C718.28,387.00 718.63,388.99 718.79,391.43 C718.98,394.40 718.61,396.13 717.68,396.68 C716.92,397.13 715.72,398.62 715.01,400.00 C714.31,401.38 712.37,404.64 710.70,407.25 ZM 645.50 404.99 C644.77,406.19 641.00,408.30 641.00,407.52 C641.00,407.22 643.36,405.44 646.25,403.56 C649.14,401.69 655.78,397.01 661.00,393.16 C666.22,389.32 670.64,386.31 670.82,386.49 C671.48,387.15 667.41,391.22 665.23,392.07 C663.98,392.56 662.53,394.10 662.01,395.48 C661.36,397.17 660.29,398.00 658.74,398.00 C657.47,398.00 654.87,399.33 652.96,400.96 C651.06,402.59 648.74,403.94 647.81,403.96 C646.88,403.98 645.84,404.45 645.50,404.99 ZM 451.91 418.47 C451.34,421.76 450.75,424.58 450.58,424.75 C450.42,424.92 449.98,422.00 449.61,418.28 C449.25,414.55 448.73,409.92 448.47,408.00 C448.21,406.08 448.25,405.04 448.57,405.70 C448.97,406.56 449.86,406.62 451.70,405.92 C454.24,404.96 454.26,405.00 453.60,408.72 C453.23,410.80 452.47,415.19 451.91,418.47 ZM 596.79 398.03 C596.44,398.22 596.11,398.40 595.82,398.55 C594.02,399.52 593.25,399.93 592.65,399.76 C592.10,399.60 591.68,398.95 590.75,397.78 C587.51,393.73 588.39,392.83 594.87,393.56 C598.78,394.01 600.97,393.86 601.43,393.11 C601.81,392.50 602.88,392.01 603.81,392.02 C605.91,392.05 602.39,395.07 596.79,398.03 ZM 685.98 377.53 C685.31,378.34 684.15,379.00 683.41,379.00 C682.67,379.00 685.72,375.40 690.18,371.00 C694.65,366.60 698.43,363.00 698.59,363.00 C698.75,363.00 698.81,363.90 698.73,365.00 C698.64,366.10 698.07,367.00 697.45,367.00 C696.83,367.00 695.74,368.76 695.03,370.91 C693.96,374.16 693.18,374.93 690.47,375.44 C688.67,375.78 686.65,376.72 685.98,377.53 ZM 338.04 461.62 C338.68,463.55 338.93,465.40 338.60,465.73 C338.27,466.06 338.00,465.59 338.00,464.69 C338.00,463.79 336.68,462.37 335.07,461.54 C333.46,460.70 331.85,459.11 331.50,457.99 C331.14,456.88 329.04,455.04 326.83,453.91 C322.26,451.58 322.34,450.48 327.00,451.50 C331.28,452.44 336.63,457.34 338.04,461.62 ZM 537.13 365.08 C538.73,366.07 541.64,364.54 543.01,361.98 C543.59,360.89 544.67,360.00 545.41,360.00 C546.15,360.00 547.31,359.33 547.99,358.51 C548.99,357.31 548.92,356.91 547.62,356.41 C545.46,355.58 535.32,363.96 537.13,365.08 ZM 404.98 460.28 C404.98,460.95 404.49,462.17 403.90,463.00 C403.09,464.14 402.99,463.78 403.48,461.50 C404.31,457.63 408.29,449.07 410.45,446.50 C412.09,444.56 412.12,444.58 411.53,447.50 C411.19,449.15 409.59,452.43 407.96,454.78 C406.33,457.13 404.99,459.61 404.98,460.28 ZM 724.42 339.66 C725.22,341.73 726.78,340.45 728.52,336.31 C730.24,332.19 730.41,330.00 729.02,330.00 C727.56,330.00 723.77,337.96 724.42,339.66 ZM 421.69 460.98 C420.48,463.71 419.21,465.96 418.86,465.98 C418.08,466.01 417.25,460.76 417.78,459.15 C418.00,458.51 418.53,458.21 418.97,458.48 C419.41,458.76 420.33,458.31 421.01,457.49 C423.50,454.49 423.82,456.13 421.69,460.98 ZM 295.95 497.10 C298.55,503.14 298.27,504.40 295.48,499.22 C293.72,495.97 291.47,494.00 285.49,490.46 C283.88,489.52 283.91,489.43 285.79,489.43 C286.93,489.43 287.66,489.73 287.43,490.11 C286.92,490.93 289.48,492.00 291.96,492.00 C293.16,492.00 294.47,493.67 295.95,497.10 ZM 732.04 350.05 C732.84,350.55 733.61,350.98 733.75,350.98 C734.45,351.03 738.00,346.86 738.00,346.00 C738.00,344.24 734.37,344.93 732.44,347.06 C730.85,348.82 730.79,349.26 732.04,350.05 ZM 693.90 384.09 C691.98,385.30 689.25,385.22 688.46,383.93 C687.74,382.77 690.72,380.08 692.78,380.03 C694.67,379.98 695.52,383.06 693.90,384.09 ZM 547.67 367.30 C548.68,367.56 549.72,367.81 550.00,367.87 C551.19,368.11 552.70,366.36 552.68,364.75 C552.66,362.43 549.75,362.52 547.58,364.91 C545.94,366.73 545.94,366.85 547.67,367.30 ZM 437.00 444.17 C431.34,448.97 429.07,449.89 432.28,446.07 C433.78,444.30 435.00,442.54 435.00,442.17 C435.00,441.80 436.24,441.43 437.75,441.35 L 440.50 441.19 ZM 502.11 403.50 C501.71,405.70 500.82,408.40 500.13,409.50 C498.01,412.87 499.62,404.01 502.06,398.88 C503.21,396.47 503.85,395.62 503.49,397.00 C503.12,398.38 502.50,401.30 502.11,403.50 ZM 765.05 456.11 C766.19,458.33 766.97,460.58 766.80,461.11 C766.31,462.56 764.00,459.87 764.00,457.86 C764.00,456.90 763.08,455.47 761.95,454.68 C760.24,453.48 760.16,453.15 761.45,452.66 C762.53,452.24 763.61,453.27 765.05,456.11 ZM 300.00 467.82 C300.00,468.34 299.03,469.02 297.84,469.33 C296.20,469.76 296.72,468.84 300.05,465.45 C302.45,463.00 304.54,461.00 304.69,461.00 C304.84,461.00 304.18,462.53 303.23,464.39 C302.28,466.26 301.16,467.58 300.75,467.34 C300.34,467.09 300.00,467.31 300.00,467.82 ZM 668.94 408.57 C668.22,409.44 665.80,411.03 663.57,412.12 C660.96,413.38 660.20,413.53 661.44,412.54 C662.51,411.70 663.75,411.00 664.19,411.00 C664.64,411.00 665.00,410.10 665.00,409.00 C665.00,407.51 665.67,407.00 667.62,407.00 C669.89,407.00 670.07,407.21 668.94,408.57 ZM 448.86 399.50 C449.12,404.63 448.85,404.96 447.07,401.62 C446.10,399.82 446.07,398.74 446.93,397.12 C447.56,395.96 448.20,395.00 448.35,395.00 C448.50,395.00 448.73,397.02 448.86,399.50 ZM 609.80 379.79 C609.37,381.99 607.52,382.33 605.99,380.49 C605.13,379.45 605.02,378.58 605.68,377.92 C607.07,376.53 610.16,377.93 609.80,379.79 ZM 380.61 393.42 C381.64,396.11 382.00,395.20 382.00,389.94 C382.00,386.82 381.62,385.12 381.00,385.50 C379.89,386.18 379.66,390.95 380.61,393.42 ZM 726.00 411.35 C726.00,412.08 725.21,413.40 724.25,414.27 C722.62,415.74 722.49,415.64 722.29,412.93 C722.12,410.62 722.49,410.00 724.04,410.00 C725.12,410.00 726.00,410.61 726.00,411.35 ZM 516.48 405.14 C516.74,405.40 516.29,408.52 515.49,412.06 L 514.02 418.50 L 514.32 412.27 C514.60,406.46 515.35,404.01 516.48,405.14 ZM 459.35 500.05 C458.79,500.61 456.57,501.30 454.41,501.57 L 450.50 502.07 L 455.00 500.14 C459.53,498.20 461.23,498.17 459.35,500.05 ZM 511.85 458.89 C512.59,459.36 513.04,460.51 512.85,461.46 C512.55,462.92 512.15,462.80 510.08,460.59 C507.67,458.02 508.79,456.95 511.85,458.89 ZM 701.59 443.90 C699.28,446.46 698.09,446.59 698.43,444.25 C698.57,443.26 699.73,442.35 701.09,442.15 C703.47,441.80 703.48,441.82 701.59,443.90 ZM 500.78 437.81 C501.34,439.40 501.43,441.31 500.98,442.04 C500.42,442.93 499.93,442.15 499.46,439.63 C498.59,435.02 499.42,433.88 500.78,437.81 ZM 634.85 413.13 C632.42,415.23 632.00,415.38 632.00,414.12 C632.00,413.63 633.12,412.49 634.50,411.59 C637.57,409.58 637.79,410.58 634.85,413.13 ZM 677.22 335.85 C676.93,336.71 677.41,337.07 678.55,336.85 C679.53,336.66 680.54,335.89 680.78,335.15 C681.07,334.29 680.59,333.93 679.45,334.15 C678.47,334.34 677.46,335.11 677.22,335.85 ZM 702.87 367.45 C702.66,368.49 701.94,369.52 701.25,369.75 C699.47,370.34 699.70,368.49 701.62,366.90 C703.01,365.74 703.18,365.82 702.87,367.45 ZM 486.00 357.58 C486.00,359.35 488.15,359.04 488.77,357.19 C488.99,356.53 488.45,356.00 487.58,356.00 C486.71,356.00 486.00,356.71 486.00,357.58 Z" fill="rgb(226,201,162)" data-index="0" style="fill: rgb(0, 0, 0); visibility: visible; opacity: 1;"/>
<path d="M 567.54 838.42 C565.31,842.77 563.00,846.50 562.41,846.70 C561.34,847.05 538.12,823.02 530.33,813.50 C524.56,806.44 523.78,804.53 523.87,797.67 C523.99,789.73 527.54,783.65 534.00,780.35 C538.33,778.14 539.44,778.06 563.04,778.03 C590.07,778.00 594.27,777.39 605.26,771.91 C609.82,769.63 614.16,766.07 621.40,758.65 C633.61,746.13 634.99,743.97 635.00,737.40 C635.00,731.76 632.61,727.25 627.68,723.59 C624.94,721.56 623.54,721.48 578.68,720.97 L 532.50 720.43 L 524.50 717.74 C497.77,708.75 481.75,686.86 481.79,659.39 C481.80,650.16 484.32,638.15 487.55,631.91 L 489.05 629.00 L 482.74 629.00 C455.57,629.00 437.93,651.30 444.06,677.88 C444.61,680.29 444.89,682.44 444.67,682.67 C444.45,682.89 441.45,683.52 438.01,684.08 C430.19,685.34 426.06,687.42 413.50,696.48 C408.00,700.44 398.94,706.88 393.38,710.80 C378.42,721.31 375.25,725.79 372.00,741.00 C369.74,751.57 366.58,757.01 360.77,760.33 C357.83,762.00 356.01,763.26 354.11,763.41 C350.27,763.71 346.09,759.53 331.79,745.26 C330.59,744.06 329.32,742.79 327.97,741.45 C306.28,719.84 305.02,718.76 300.83,718.28 C297.48,717.91 294.57,718.52 288.50,720.87 C284.13,722.57 280.18,723.58 279.72,723.12 C278.93,722.33 280.21,689.64 281.60,675.00 C282.24,668.24 284.45,662.71 287.68,659.79 C292.93,655.04 303.47,653.63 310.17,656.78 C312.19,657.72 320.66,665.03 329.00,673.00 C347.81,690.99 350.38,692.48 362.50,692.48 C370.66,692.48 372.07,692.18 377.60,689.30 C385.28,685.30 392.21,677.70 395.04,670.20 C396.83,665.46 397.12,662.90 396.81,655.00 C396.47,646.44 396.11,644.91 393.07,639.50 C384.56,624.30 382.98,621.02 381.54,615.49 C379.62,608.10 379.53,590.35 381.39,583.37 C386.72,563.34 403.45,546.84 423.22,542.11 C426.81,541.26 479.72,539.90 505.99,539.99 C506.80,540.00 500.96,533.47 493.00,525.50 C485.04,517.53 477.79,511.00 476.89,511.00 C475.98,511.00 474.74,511.61 474.12,512.35 C473.51,513.10 469.83,515.16 465.96,516.95 C455.46,521.79 446.49,522.18 433.42,518.38 C420.66,514.67 411.52,514.53 405.00,517.92 C402.52,519.21 393.75,525.31 385.50,531.47 C377.25,537.63 365.15,546.44 358.61,551.04 C351.16,556.28 342.94,563.27 336.64,569.72 C331.10,575.39 324.73,580.92 322.47,582.01 C313.08,586.56 302.52,582.97 289.47,570.78 L 281.87 563.68 L 287.88 557.59 C291.19,554.24 294.37,550.23 294.95,548.68 C296.35,544.95 296.34,507.02 294.94,503.32 C293.17,498.65 288.89,494.91 281.25,491.39 C277.26,489.55 274.00,487.65 274.00,487.16 C274.00,485.58 308.93,453.58 313.19,451.25 C320.61,447.20 331.91,448.82 337.22,454.69 C341.27,459.17 342.00,464.24 342.06,488.38 C342.12,513.39 342.78,517.58 347.00,519.71 C352.16,522.31 354.26,521.39 370.65,509.38 C397.82,489.46 396.71,491.13 401.01,463.63 C401.51,460.40 403.30,454.81 404.99,451.21 L 408.06 444.66 L 396.65 433.08 C390.37,426.71 383.82,419.25 382.08,416.50 C375.58,406.19 373.41,392.33 376.18,378.89 C378.20,369.14 376.87,366.60 361.76,351.31 C354.59,344.06 347.44,337.60 345.88,336.95 C341.29,335.05 336.88,336.53 331.44,341.80 C323.07,349.91 320.25,351.47 314.02,351.43 C307.17,351.39 304.80,350.15 291.94,339.90 L 281.76 331.80 L 287.34 326.15 C295.65,317.73 296.00,316.41 296.00,293.50 C296.00,267.46 295.15,265.36 282.01,259.01 C278.16,257.14 275.00,255.11 275.00,254.49 C275.00,253.88 282.63,246.20 291.96,237.44 C309.81,220.66 315.24,217.04 322.55,217.01 C328.11,217.00 335.91,221.10 339.00,225.66 C341.47,229.30 341.51,229.64 342.04,255.92 C342.62,284.38 342.82,285.66 348.73,297.50 C351.93,303.92 388.59,341.14 394.56,344.03 C399.44,346.39 403.93,346.51 411.66,344.50 C427.20,340.45 444.14,344.77 455.51,355.67 C459.47,359.46 460.32,359.88 461.81,358.78 C462.75,358.07 470.31,350.51 478.61,341.97 C495.37,324.71 497.17,321.75 494.61,315.61 C493.79,313.65 491.63,311.13 489.81,310.00 C486.63,308.04 485.22,307.97 453.87,308.23 L 421.24 308.50 L 413.13 312.75 C408.66,315.09 404.31,317.00 403.45,317.00 C402.06,317.00 401.92,313.94 402.20,289.75 C402.51,263.97 402.65,262.19 404.85,256.72 C410.29,243.17 424.59,233.00 441.13,230.92 C446.87,230.21 450.13,229.28 451.51,227.99 C452.13,227.41 452.64,226.90 453.20,226.45 C457.49,223.00 464.57,223.00 540.94,223.00 L 547.61 223.00 L 634.28 223.00 L 633.74 228.25 C632.57,239.49 625.53,255.46 616.35,267.66 C613.37,271.62 610.56,275.00 610.11,275.18 C609.66,275.36 606.94,277.63 604.06,280.23 L 598.84 284.95 L 600.95 290.58 C602.10,293.68 603.33,298.87 603.67,302.11 C604.01,305.35 604.46,308.00 604.68,308.00 C605.13,308.00 629.10,291.35 668.00,264.01 C701.82,240.24 737.10,215.62 738.86,214.56 C741.25,213.13 741.97,216.13 741.98,227.50 C742.00,244.38 738.72,265.27 734.46,275.42 C733.78,277.05 733.95,277.22 735.58,276.55 C736.63,276.10 738.51,275.52 739.75,275.25 C742.00,274.77 742.00,274.79 741.98,288.13 C741.96,303.18 740.08,318.98 737.05,329.74 C735.92,333.72 735.00,337.23 735.00,337.53 C735.00,337.84 736.64,337.78 738.64,337.41 L 742.28 336.72 L 741.72 353.61 C741.13,371.23 739.44,383.00 735.93,394.00 C732.33,405.30 724.34,420.74 717.12,430.34 C706.12,444.98 695.29,454.36 666.00,474.62 C646.57,488.06 639.32,491.49 622.32,495.29 L 612.13 497.57 L 720.81 606.50 L 725.42 606.81 C731.16,607.19 735.34,604.52 737.04,599.39 C739.32,592.46 738.35,591.01 716.73,569.06 C694.67,546.66 692.93,544.17 690.30,531.28 C688.39,521.95 689.55,511.85 693.50,503.22 C697.75,493.94 701.33,490.56 720.83,477.45 C731.10,470.55 744.76,461.25 751.20,456.78 L 751.78 456.38 C758.91,451.43 762.02,449.27 764.06,450.02 C765.69,450.62 766.62,453.09 768.39,457.49 C773.58,470.46 773.78,481.56 769.07,494.12 C764.47,506.36 759.49,511.16 732.53,529.34 C727.76,532.56 723.63,535.80 723.34,536.56 C723.01,537.41 729.25,544.21 739.70,554.38 C750.50,564.90 757.52,572.57 759.17,575.66 C769.25,594.51 762.34,619.21 744.33,628.72 C731.83,635.32 720.73,635.46 708.94,629.17 C703.45,626.24 697.80,621.31 680.95,604.75 C669.34,593.34 659.49,584.00 659.06,584.00 C658.63,584.00 657.98,586.54 657.61,589.65 C656.15,602.04 648.46,619.06 640.12,628.29 C638.13,630.50 631.25,636.28 624.82,641.13 C618.40,645.98 612.90,650.36 612.59,650.85 C612.27,651.37 619.79,651.97 630.27,652.25 C649.89,652.78 654.14,653.69 665.10,659.65 C675.85,665.50 687.67,681.63 691.01,695.00 C691.63,697.47 692.39,707.87 692.70,718.10 L 693.26 736.71 L 688.38 737.36 C685.69,737.71 680.80,739.30 677.50,740.89 C671.19,743.93 666.82,748.09 646.66,770.20 C634.11,783.98 633.69,785.43 639.46,794.93 C644.82,803.76 645.80,817.08 641.55,823.56 L 639.95 826.00 L 610.19 826.00 C581.30,826.00 580.29,826.07 576.00,828.25 C572.23,830.17 570.99,831.66 567.54,838.42 ZM 338.04 461.62 C336.63,457.34 331.28,452.44 327.00,451.50 C322.93,450.61 322.36,451.34 325.33,453.09 C321.37,451.13 317.00,450.04 317.00,451.88 C317.00,452.36 315.62,453.33 313.92,454.03 C310.39,455.50 306.01,459.65 303.52,463.82 C304.31,462.22 304.82,461.00 304.69,461.00 C304.54,461.00 302.45,463.00 300.05,465.45 C296.74,468.83 296.20,469.75 297.82,469.34 C296.04,469.80 296.25,469.31 299.09,466.19 C300.95,464.16 298.87,465.95 294.48,470.16 C290.09,474.37 284.48,479.63 282.00,481.85 C277.80,485.62 277.61,486.00 279.16,487.57 C280.08,488.50 282.40,489.31 284.32,489.38 C284.64,489.39 284.94,489.41 285.23,489.43 C283.92,489.46 284.06,489.62 285.49,490.46 C291.47,494.00 293.72,495.97 295.48,499.22 C296.33,500.80 296.94,501.78 297.32,502.21 C297.80,505.81 297.90,511.55 297.96,523.72 C298.08,549.16 297.76,550.60 290.30,558.19 C285.83,562.75 285.74,562.95 287.28,565.31 C289.19,568.21 298.07,575.79 303.12,578.83 C307.27,581.32 317.91,581.81 321.72,579.69 C322.94,579.02 329.24,573.25 335.72,566.89 C342.20,560.52 350.24,553.48 353.58,551.23 C362.65,545.15 375.16,536.13 378.00,533.63 C379.38,532.42 380.95,531.25 381.50,531.03 C382.05,530.81 386.31,527.72 390.98,524.17 C406.69,512.17 413.96,510.61 430.73,515.62 C436.65,517.38 441.94,518.25 447.00,518.28 C454.66,518.33 466.00,515.76 466.00,513.97 C466.00,513.44 466.57,513.00 467.27,513.00 C467.97,513.00 470.19,511.88 472.21,510.50 C474.24,509.12 476.49,508.00 477.21,508.00 C478.85,508.00 511.00,540.08 511.00,541.71 C511.00,542.61 500.28,542.98 467.46,543.20 C434.91,543.42 423.74,543.80 423.18,544.70 C422.78,545.36 420.88,546.08 418.97,546.29 C414.02,546.85 407.72,550.34 402.31,555.52 C399.74,557.99 397.31,560.00 396.91,560.00 C395.67,560.00 388.82,570.15 386.48,575.46 C383.35,582.56 382.00,589.78 382.00,599.39 C382.00,611.25 384.70,620.67 391.36,632.05 C400.43,647.53 401.93,658.10 396.96,671.39 C391.38,686.28 372.23,697.81 357.57,695.10 C348.21,693.37 342.53,689.65 328.57,676.09 C311.10,659.12 309.42,657.92 302.29,657.36 C297.52,656.98 295.80,657.31 292.53,659.22 C286.10,662.97 284.28,666.61 283.54,677.26 C282.20,696.51 281.14,719.48 281.58,719.91 C281.82,720.16 284.88,719.35 288.37,718.12 C295.54,715.59 301.55,715.19 305.10,716.99 C306.42,717.66 317.21,727.87 329.08,739.68 L 350.67 761.15 L 354.49 760.44 C362.57,758.92 367.14,752.24 370.00,737.78 C371.58,729.78 376.40,720.67 381.25,716.52 C383.51,714.58 389.22,710.37 393.93,707.16 C398.64,703.95 407.45,697.82 413.50,693.54 C425.63,684.96 430.52,682.49 437.43,681.46 L 442.05 680.77 L 441.27 677.13 C440.85,675.13 440.55,669.81 440.62,665.29 C440.72,658.11 441.18,656.17 444.23,649.79 C450.14,637.45 459.27,630.32 472.87,627.44 C480.37,625.85 490.60,625.55 491.43,626.89 C491.74,627.39 490.81,630.35 489.38,633.48 C485.37,642.25 484.02,648.64 484.01,659.04 C483.99,676.58 489.02,689.03 500.98,701.06 C506.45,706.56 510.39,709.51 515.45,711.90 C527.55,717.62 531.07,717.96 577.62,717.98 C622.90,718.00 625.43,718.25 630.82,723.28 C636.76,728.83 638.74,739.08 635.17,745.78 C634.21,747.58 629.09,753.69 623.80,759.35 C616.35,767.33 612.62,770.48 607.25,773.30 C595.70,779.37 591.64,780.00 564.15,780.00 C541.34,780.00 539.44,780.14 535.52,782.10 C529.46,785.12 526.00,790.89 526.01,797.95 C526.01,805.44 527.48,807.61 545.87,827.44 C554.32,836.55 561.40,844.00 561.61,844.00 C561.81,844.00 563.53,840.91 565.43,837.14 C568.96,830.14 573.43,825.39 577.33,824.51 C578.52,824.24 592.74,823.87 608.93,823.69 L 638.36 823.35 L 639.92 821.00 C641.00,819.37 641.46,816.33 641.43,811.08 C641.39,804.11 641.04,802.85 637.06,795.35 C634.80,791.10 633.34,788.42 633.31,785.73 C633.27,781.05 637.58,776.32 649.61,763.11 L 650.22 762.45 C668.11,742.81 674.49,737.80 684.14,735.81 L 690.00 734.60 L 689.99 718.55 C689.97,700.10 688.76,693.44 683.53,683.06 C677.45,670.99 667.45,662.49 653.12,657.22 C647.21,655.05 644.40,654.73 626.75,654.25 C613.32,653.88 607.00,653.36 607.00,652.61 C607.01,652.00 612.88,647.05 620.05,641.60 C627.23,636.16 635.51,629.04 638.46,625.78 C647.63,615.65 654.24,600.08 655.68,585.22 C656.02,581.76 656.65,579.06 657.08,579.22 C657.51,579.37 668.25,589.62 680.95,602.00 C707.65,628.03 710.64,630.08 722.90,630.79 C738.00,631.66 750.91,624.42 757.53,611.37 C760.29,605.92 760.50,604.72 760.50,594.50 C760.50,579.05 759.41,577.25 736.53,554.85 C719.05,537.74 718.56,537.15 720.26,535.27 C721.22,534.21 729.45,528.25 738.54,522.03 C756.04,510.07 759.94,506.38 764.78,497.20 C771.07,485.27 771.79,466.27 766.29,461.52 C766.51,461.54 766.69,461.42 766.80,461.11 C766.97,460.58 766.19,458.33 765.05,456.11 C763.61,453.27 762.53,452.24 761.45,452.66 C760.33,453.09 760.24,453.39 761.35,454.24 C760.97,454.08 760.58,454.00 760.18,454.00 C758.62,454.00 744.82,463.41 740.47,467.44 C738.95,468.85 737.35,470.00 736.92,470.00 C735.91,470.00 713.11,485.06 706.26,490.25 C703.38,492.44 701.24,494.58 701.51,495.01 C701.77,495.44 701.31,496.05 700.47,496.37 C699.64,496.69 697.59,499.90 695.93,503.50 C690.47,515.30 690.27,530.35 695.42,541.60 C697.51,546.18 701.87,551.16 717.76,567.16 C728.62,578.09 738.10,588.48 738.84,590.24 C741.83,597.36 737.46,606.65 730.09,608.85 C728.68,609.28 727.54,609.68 726.38,609.79 C720.57,610.36 714.05,603.78 668.05,557.35 C666.45,555.73 664.80,554.07 663.11,552.35 C632.80,521.76 608.00,496.42 608.00,496.04 C608.00,495.66 612.59,494.54 618.21,493.56 C636.56,490.35 647.31,485.03 673.50,466.21 C691.09,453.57 697.47,448.36 698.47,445.59 C698.80,446.35 699.89,445.78 701.59,443.90 C703.42,441.88 703.47,441.80 701.29,442.12 C706.05,440.79 721.98,421.69 722.55,416.47 C722.60,416.06 722.67,415.62 722.77,415.19 C723.04,415.32 723.47,414.97 724.25,414.27 C725.21,413.40 726.00,412.08 726.00,411.35 C726.00,410.95 725.74,410.59 725.34,410.34 C726.91,410.33 727.63,408.89 730.31,402.10 C732.18,397.37 734.27,391.25 734.96,388.50 C736.57,381.99 738.88,367.78 738.22,368.45 C738.04,368.62 737.69,368.39 737.29,367.89 C737.78,368.45 738.19,368.50 738.49,368.01 C739.44,366.49 740.48,339.00 739.60,339.00 C739.21,339.00 737.52,339.71 735.84,340.59 C734.14,341.46 732.39,341.79 731.92,341.32 C731.45,340.85 732.17,336.97 733.54,332.68 C734.90,328.40 736.70,320.76 737.55,315.70 C739.25,305.50 740.64,281.12 739.66,278.57 C739.08,277.06 738.80,277.05 735.90,278.55 C734.13,279.47 732.39,279.79 731.90,279.30 C731.41,278.81 732.08,274.98 733.46,270.46 C734.79,266.08 736.59,258.45 737.46,253.50 C739.22,243.37 740.63,221.09 739.66,218.56 C739.53,218.22 739.47,217.92 739.28,217.77 C738.55,217.20 735.88,219.08 719.29,230.77 C718.31,231.46 717.28,232.18 716.20,232.95 C711.08,236.55 705.80,240.18 704.46,241.00 C703.11,241.82 693.80,248.31 683.76,255.42 C673.72,262.53 655.83,275.08 644.00,283.32 C632.17,291.56 618.08,301.38 612.69,305.15 C607.29,308.92 602.45,312.00 601.94,312.00 C601.42,312.00 601.00,309.04 601.00,305.43 C601.00,301.00 600.16,296.35 598.41,291.18 L 595.82 283.50 L 599.66 280.52 C614.87,268.71 625.15,252.98 629.94,234.24 C631.07,229.80 632.00,225.90 632.00,225.58 C632.00,225.26 593.64,225.01 546.75,225.02 C465.42,225.04 461.31,225.13 457.35,226.93 C455.07,227.96 452.77,229.59 452.24,230.54 C451.51,231.83 449.26,232.47 443.38,233.06 C429.77,234.43 421.91,238.04 414.22,246.45 C411.34,249.61 408.14,254.49 406.82,257.75 C404.64,263.15 404.48,265.03 404.20,288.75 C404.04,302.64 404.18,314.00 404.52,314.00 C404.86,314.00 407.06,312.88 409.40,311.50 C419.82,305.40 422.62,305.00 455.20,305.00 C482.97,305.00 485.35,305.14 488.95,306.97 C496.40,310.77 499.44,317.61 496.66,324.28 C495.36,327.39 463.33,361.87 460.84,362.84 C460.36,363.02 457.44,360.86 454.34,358.03 C441.48,346.28 426.83,342.61 410.09,346.96 C396.67,350.44 394.00,348.97 369.63,324.71 C341.16,296.36 340.89,295.74 340.07,258.00 C339.52,232.60 339.40,231.35 337.20,227.80 C333.79,222.32 328.66,219.53 321.97,219.53 C318.16,219.53 315.45,220.15 313.30,221.52 C309.45,223.96 278.00,252.85 278.00,253.94 C278.00,254.38 280.14,255.62 282.75,256.71 C289.12,259.37 293.90,263.56 296.12,268.46 C297.71,271.96 297.96,275.28 297.98,293.28 C298.00,317.28 297.66,318.71 289.97,326.52 L 285.03 331.54 L 293.75 338.50 C304.21,346.84 308.20,349.00 313.15,349.00 C318.78,349.00 321.24,347.69 329.03,340.54 C335.68,334.43 336.47,334.00 340.83,334.00 C347.03,334.01 349.20,335.50 363.58,349.63 C377.51,363.31 379.73,367.26 378.58,376.23 C375.20,402.49 377.90,410.59 397.21,430.48 C397.25,430.58 397.32,430.71 397.41,430.86 C397.61,431.18 397.90,431.41 398.22,431.51 C404.94,438.37 410.58,443.75 410.83,443.50 C410.85,443.48 410.86,443.44 410.85,443.38 C410.95,443.57 411.04,443.75 411.11,443.92 C411.29,444.37 411.42,444.84 411.49,445.33 C411.26,445.54 410.93,445.94 410.45,446.50 C408.89,448.36 406.37,453.36 404.78,457.45 C404.63,457.48 404.56,457.70 404.56,458.04 C404.06,459.37 403.68,460.57 403.48,461.50 C403.00,463.76 403.09,464.13 403.89,463.02 C403.82,463.14 403.76,463.25 403.69,463.36 C402.70,464.86 401.97,468.94 401.69,474.57 C401.42,479.86 400.79,483.57 400.11,483.80 C399.49,484.00 399.24,484.58 399.55,485.09 C399.86,485.59 399.70,486.00 399.18,486.00 C398.66,486.00 397.70,487.32 397.03,488.94 C395.91,491.64 388.76,500.00 387.56,500.00 C386.50,500.00 367.00,514.39 367.00,515.18 C367.00,515.63 366.34,516.00 365.54,516.00 C364.73,516.00 363.59,516.90 363.00,518.00 C360.48,522.71 349.10,524.64 344.39,521.16 C340.34,518.18 340.00,515.87 340.00,491.61 C340.00,476.57 339.81,469.46 338.63,465.69 C338.91,465.27 338.65,463.48 338.04,461.62 ZM 451.91 418.47 C452.47,415.19 453.23,410.80 453.60,408.72 C453.93,406.84 454.09,405.90 453.84,405.56 C454.10,405.57 454.30,405.63 454.40,405.73 C454.73,406.06 455.04,405.58 455.09,404.67 C455.14,403.79 455.19,402.97 455.24,402.20 L 459.58 394.08 C464.92,384.07 465.04,383.93 489.70,358.20 C512.43,334.49 514.37,331.40 514.37,318.89 C514.37,312.61 513.89,310.29 511.62,305.66 C508.33,298.93 502.65,293.82 495.08,290.77 C489.73,288.62 488.25,288.53 459.50,288.51 C433.56,288.50 429.00,288.73 425.81,290.17 C420.26,292.69 419.62,291.32 420.50,278.77 C421.60,262.81 425.11,256.53 435.50,251.86 C439.27,250.17 442.58,249.57 448.94,249.46 C456.52,249.32 457.48,249.09 458.34,247.17 C458.86,246.00 461.14,244.17 463.39,243.11 C467.33,241.25 470.35,241.18 538.25,241.23 C589.22,241.27 609.00,241.60 608.99,242.39 C608.99,243.00 607.64,245.83 606.01,248.69 C600.89,257.61 587.13,269.90 576.00,275.48 C572.97,277.00 570.34,278.38 570.14,278.56 C569.95,278.73 571.93,281.49 574.55,284.69 C585.30,297.82 587.41,309.62 581.24,322.15 C577.17,330.43 577.68,330.02 531.39,362.75 C523.91,368.03 516.83,374.49 511.95,380.30 C511.68,380.41 511.52,380.60 511.51,380.82 C510.51,382.05 509.60,383.24 508.81,384.39 C508.54,384.27 508.42,384.47 508.48,384.89 C508.13,385.41 507.81,385.92 507.51,386.42 C507.46,386.45 507.42,386.51 507.41,386.60 C504.53,391.73 504.94,392.03 507.57,388.38 C507.41,388.95 507.05,389.54 506.55,389.96 C505.70,390.67 505.00,391.86 505.00,392.62 C505.00,393.38 504.52,394.00 503.94,394.00 C503.36,394.00 503.16,394.45 503.51,395.01 C504.06,395.91 503.64,398.11 502.99,399.12 C503.17,398.27 503.35,397.52 503.49,397.00 C503.85,395.62 503.21,396.47 502.06,398.88 C499.62,404.01 498.01,412.87 500.13,409.50 C500.59,408.77 501.14,407.33 501.57,405.80 C501.03,408.44 499.86,411.00 498.88,411.00 C498.40,411.00 498.00,415.85 498.00,421.79 C498.00,429.60 498.30,432.65 499.49,435.43 C499.03,435.31 498.93,436.83 499.46,439.63 C499.93,442.15 500.42,442.93 500.98,442.04 C501.27,441.57 501.33,440.62 501.20,439.58 C501.42,440.58 501.34,441.36 501.00,442.00 C500.33,443.25 501.00,445.64 503.43,450.71 C505.90,455.87 506.96,457.42 508.89,458.07 C508.57,458.44 508.90,459.33 510.08,460.59 C512.15,462.80 512.55,462.92 512.85,461.46 C512.97,460.84 512.83,460.14 512.50,459.59 C512.87,460.01 513.08,460.53 513.18,461.17 C513.38,462.57 514.45,463.68 516.00,464.11 C520.15,465.26 523.88,465.08 527.53,463.55 C529.44,462.75 531.00,461.85 531.00,461.54 C531.00,461.23 528.98,458.49 526.50,455.45 C517.57,444.48 515.06,436.64 514.73,418.62 C514.71,417.52 514.70,416.50 514.69,415.57 L 515.49 412.06 C516.29,408.52 516.74,405.40 516.48,405.14 C516.37,405.04 516.27,404.97 516.18,404.92 C517.08,404.34 518.72,401.75 519.87,399.08 C521.04,396.35 522.42,393.86 522.93,393.54 C523.36,393.28 523.61,392.18 523.56,390.94 C524.33,390.91 525.96,389.59 528.55,386.93 C531.76,383.63 546.93,371.95 553.78,367.50 C556.35,365.83 581.09,348.63 606.87,330.57 C620.27,321.18 633.55,311.90 636.37,309.94 C643.23,305.17 696.05,268.06 707.93,259.67 C718.79,251.99 720.48,251.49 719.46,256.25 C717.73,264.25 710.71,281.95 706.31,289.37 C700.28,299.55 683.04,317.09 671.00,325.29 C662.19,331.29 642.58,345.01 631.10,353.23 C621.81,359.87 615.71,364.10 598.14,376.05 C589.69,381.80 581.14,387.91 579.14,389.64 L 575.50 392.78 L 577.49 394.98 C578.47,396.07 580.02,397.37 581.13,398.05 C581.12,398.14 581.11,398.24 581.09,398.32 C581.01,398.78 581.41,398.86 581.98,398.52 L 581.98 398.51 C583.01,399.05 583.20,399.06 582.70,398.38 C582.88,398.45 583.00,398.65 583.00,398.94 C583.00,399.53 585.00,400.00 587.50,400.00 C590.63,400.00 591.92,399.85 591.84,399.15 C592.13,399.47 592.37,399.68 592.65,399.76 C593.25,399.93 594.02,399.52 595.82,398.55 C596.11,398.40 596.44,398.22 596.79,398.03 C602.39,395.07 605.91,392.05 603.81,392.02 C603.76,392.02 603.70,392.02 603.65,392.03 C603.87,391.99 604.09,391.97 604.31,391.97 C606.65,391.93 610.32,389.65 609.44,388.78 C609.44,388.77 609.44,388.77 609.43,388.77 C609.74,389.03 611.88,387.84 614.22,386.09 C618.15,383.18 638.38,368.94 665.64,349.92 C671.61,345.75 685.88,335.74 697.33,327.67 C708.79,319.60 718.58,313.00 719.08,313.00 C720.75,313.00 720.04,317.73 717.10,326.17 C712.33,339.87 711.80,341.16 708.45,347.09 C706.70,350.18 705.55,353.13 705.86,353.69 C705.51,353.17 704.38,354.03 703.36,355.60 C702.34,357.18 700.77,359.21 699.87,360.11 C699.25,360.74 698.76,361.88 698.58,363.00 C698.37,363.06 694.61,366.64 690.18,371.00 C685.72,375.40 682.67,378.99 683.41,379.00 C682.16,379.00 678.22,380.97 673.14,384.15 C671.96,384.88 671.00,386.10 671.00,386.85 C671.00,387.33 670.75,387.65 670.37,387.75 C670.81,387.15 671.01,386.68 670.82,386.49 C670.75,386.42 670.01,386.85 668.82,387.64 C668.75,387.67 668.69,387.71 668.63,387.76 C666.82,388.97 664.04,390.92 661.00,393.16 C655.78,397.01 649.14,401.69 646.25,403.56 C643.50,405.35 641.23,407.05 641.02,407.47 C641.01,407.45 641.00,407.42 641.00,407.39 C641.00,407.01 639.87,407.92 638.50,409.41 C637.97,409.98 637.42,410.46 636.91,410.83 C637.07,410.31 636.35,410.42 634.80,411.40 C634.59,411.34 634.47,411.42 634.45,411.63 C633.10,412.52 632.00,413.63 632.00,414.12 L 632.00 414.15 C631.91,414.14 631.82,414.12 631.72,414.11 C630.91,413.98 609.94,428.22 607.74,430.39 C607.06,431.06 605.71,431.91 604.75,432.27 C603.79,432.64 603.00,433.82 603.00,434.90 C603.00,437.97 608.59,441.30 614.60,441.80 L 614.73 441.81 C615.89,441.91 616.83,441.99 617.76,441.93 C621.64,441.69 625.37,439.08 644.80,425.62 C659.88,415.18 664.33,411.83 661.00,413.43 C660.34,413.75 660.34,413.56 660.92,413.02 C660.61,413.42 661.52,413.11 663.57,412.12 C665.80,411.03 668.22,409.44 668.94,408.57 C669.51,407.89 669.75,407.50 669.55,407.27 C671.02,407.14 672.30,406.41 674.05,404.81 C675.76,403.25 678.47,401.29 680.08,400.46 C681.68,399.63 683.00,398.54 683.00,398.04 C683.00,397.54 684.01,396.82 685.25,396.43 C687.61,395.69 692.82,392.00 691.51,392.00 C691.42,392.00 691.36,391.97 691.33,391.90 C691.61,392.04 692.61,391.59 694.21,390.53 C694.06,390.91 694.27,390.95 694.80,390.62 C695.12,390.43 695.34,390.09 695.44,389.70 C697.31,388.43 701.11,385.89 704.50,383.63 C708.35,381.07 712.85,377.85 714.50,376.47 L 717.34 374.09 L 719.83 373.76 L 719.83 378.38 C719.83,381.03 719.37,383.00 718.75,383.00 C718.15,383.00 717.96,383.30 718.32,383.66 C718.69,384.02 718.48,384.92 717.87,385.66 C717.26,386.40 717.15,387.00 717.63,387.00 C717.73,387.00 717.82,387.03 717.91,387.08 C717.44,387.65 715.85,391.34 714.16,395.76 C712.66,399.68 710.66,404.14 709.25,406.77 C708.90,406.93 708.56,407.16 708.33,407.41 C707.85,407.94 708.02,408.02 708.75,407.60 C708.77,407.59 708.79,407.58 708.81,407.57 C708.66,407.83 708.52,408.05 708.39,408.25 C707.06,410.31 706.35,412.00 706.82,412.00 C706.86,412.00 706.92,411.98 706.99,411.94 C706.70,412.26 706.39,412.59 706.06,412.94 C703.90,415.19 701.84,417.93 701.49,419.02 C701.15,420.11 700.45,421.00 699.93,421.00 C699.42,421.00 699.11,421.34 699.25,421.75 C699.52,422.55 688.22,433.56 681.40,439.14 C677.09,442.66 674.60,444.49 661.50,453.77 C657.10,456.88 653.35,459.78 653.17,460.21 C652.98,460.65 652.20,461.00 651.42,461.00 C650.64,461.00 650.00,461.40 650.00,461.88 C650.00,462.37 649.21,463.03 648.25,463.34 C647.29,463.66 643.74,465.66 640.36,467.78 C627.15,476.10 612.28,479.00 582.88,479.00 C562.55,479.00 562.02,479.05 562.32,481.01 C562.49,482.11 578.54,498.96 598.00,518.45 C617.46,537.93 633.97,555.00 634.68,556.37 C639.31,565.20 640.32,584.46 636.71,595.06 C631.52,610.29 624.95,617.35 599.38,635.18 C591.75,640.50 584.77,646.12 583.89,647.68 C579.82,654.81 580.88,662.93 586.55,667.91 L 590.07 671.00 L 612.95 671.00 C632.28,671.00 636.73,671.28 641.66,672.82 C650.03,675.43 655.49,679.26 659.44,685.26 C663.75,691.81 665.42,698.39 664.73,706.09 C664.20,711.89 660.52,721.11 658.50,721.71 C657.95,721.87 656.41,719.94 655.07,717.43 C651.86,711.38 645.33,705.77 638.80,703.46 C633.94,701.73 629.51,701.55 585.00,701.30 C540.04,701.05 536.02,700.89 529.99,699.06 C512.86,693.87 501.97,679.92 501.16,662.16 C500.74,652.68 501.96,647.05 506.21,638.88 C509.98,631.64 512.65,629.18 529.00,617.78 C553.90,600.44 556.46,598.62 566.05,591.55 C571.31,587.67 578.82,582.25 582.76,579.50 C586.69,576.75 589.93,574.20 589.96,573.84 C589.98,573.48 587.93,572.18 585.40,570.95 C581.34,568.99 579.81,568.80 572.57,569.35 L 564.35 569.98 L 528.18 533.61 C508.28,513.60 492.00,496.79 492.00,496.24 C492.00,495.69 492.67,493.63 493.50,491.65 C495.89,485.93 495.26,477.70 492.35,476.58 C491.52,476.26 488.46,477.86 485.31,480.26 C482.24,482.59 478.69,485.17 477.43,486.00 C465.09,494.04 460.11,497.70 460.06,498.77 C459.77,498.41 458.00,498.85 455.00,500.14 L 451.92 501.46 C450.39,501.44 448.66,501.33 446.73,501.13 C437.01,500.15 431.86,497.80 426.58,491.96 C421.29,486.10 419.05,480.65 419.00,473.50 C418.98,470.87 418.73,467.63 418.40,465.44 C418.55,465.78 418.71,465.98 418.86,465.98 C419.21,465.96 420.48,463.71 421.69,460.98 C422.94,458.12 423.35,456.38 422.96,456.04 C423.11,455.99 423.25,455.96 423.37,455.95 C424.06,455.92 427.78,451.88 430.88,448.04 C430.39,449.20 432.73,447.79 437.00,444.17 L 439.45 442.09 C439.21,442.57 440.40,442.07 442.17,440.94 C444.00,439.77 446.73,438.07 448.24,437.16 C450.96,435.51 451.52,434.01 450.43,424.39 C450.49,424.66 450.54,424.79 450.58,424.75 C450.75,424.58 451.34,421.76 451.91,418.47 ZM 655.72 713.60 C658.16,717.47 658.65,717.81 659.71,716.37 C663.14,711.71 663.56,698.69 660.50,691.36 C658.64,686.89 652.44,680.34 647.08,677.19 C642.50,674.50 642.48,674.50 617.00,674.00 C589.60,673.46 588.34,673.23 583.23,667.76 C580.85,665.21 579.00,660.15 579.00,656.19 C579.00,651.29 583.12,644.08 587.88,640.66 C590.42,638.83 598.67,632.97 606.21,627.62 C621.66,616.67 626.50,611.72 631.43,601.87 C635.93,592.87 637.38,585.52 636.71,575.00 C636.46,571.07 636.37,568.23 635.72,565.54 C633.74,557.30 626.55,550.31 593.68,517.00 L 554.71 477.50 L 582.11 476.87 C624.99,475.89 628.13,474.83 663.50,449.63 C690.08,430.69 701.02,418.95 709.99,399.73 C713.87,391.40 717.43,380.68 716.83,379.09 C716.65,378.62 707.20,384.82 695.82,392.86 C684.45,400.91 668.08,412.45 659.44,418.50 C650.80,424.55 640.24,432.05 635.96,435.17 C625.51,442.81 622.69,444.14 616.65,444.28 C612.73,444.37 610.25,443.72 606.27,441.55 C600.24,438.27 597.22,435.34 598.57,434.11 C599.08,433.65 607.83,427.50 618.00,420.44 C692.30,368.91 698.23,363.68 709.42,339.85 C713.63,330.90 718.40,317.00 717.27,317.00 C716.97,317.00 710.60,321.38 703.11,326.74 C695.63,332.09 686.58,338.47 683.00,340.90 C679.42,343.34 669.08,350.59 660.00,357.00 C656.18,359.70 652.59,362.25 649.21,364.64 C598.96,400.20 594.61,403.27 590.48,403.00 C589.81,402.96 589.15,402.83 588.29,402.73 C583.47,402.19 575.52,397.73 573.28,394.32 C571.90,392.22 572.22,391.85 581.17,385.26 C586.30,381.49 593.88,376.13 598.00,373.36 C606.93,367.36 620.44,358.03 631.56,350.18 C635.99,347.06 648.59,338.25 659.56,330.62 C681.31,315.47 690.07,307.72 699.21,295.54 C707.23,284.86 713.47,271.83 716.39,259.70 C717.03,257.05 716.94,256.96 714.85,258.08 C713.63,258.73 706.53,263.63 699.07,268.96 C678.70,283.50 658.30,297.90 651.53,302.50 C648.21,304.75 639.20,311.03 631.50,316.46 C623.80,321.89 613.22,329.28 608.00,332.88 C602.78,336.49 591.97,344.04 584.00,349.66 C576.03,355.28 565.90,362.40 561.50,365.50 C557.10,368.59 549.22,374.12 544.00,377.80 C531.40,386.66 525.99,392.21 522.32,400.02 C517.97,409.29 516.65,415.91 517.24,425.40 C517.91,436.11 521.61,445.43 528.72,454.30 C532.01,458.41 533.95,461.70 533.60,462.60 C532.12,466.46 520.07,468.31 513.70,465.65 C506.72,462.73 500.35,452.38 497.40,439.17 C494.97,428.28 495.85,410.14 499.33,399.50 C502.72,389.14 508.05,380.25 515.24,373.00 C518.40,369.81 529.21,361.44 539.25,354.41 C576.92,328.02 578.43,326.63 581.64,315.09 C583.18,309.52 583.19,308.60 581.69,302.52 C579.95,295.48 576.12,289.01 569.73,282.33 L 565.74 278.16 L 572.12 274.95 C584.85,268.53 595.33,260.28 601.68,251.64 C604.06,248.42 606.00,245.38 606.00,244.89 C606.00,244.38 576.42,244.00 536.45,244.00 L 531.71 244.00 C471.03,244.00 463.10,244.00 460.84,247.58 C460.44,248.21 460.22,248.94 459.91,249.81 C458.98,252.48 458.91,252.50 449.24,252.50 C440.91,252.50 438.81,252.85 434.77,254.92 C429.52,257.60 425.72,262.43 424.09,268.50 C422.97,272.64 422.58,287.24 423.55,288.22 C423.86,288.52 426.18,288.15 428.71,287.39 C432.15,286.35 440.22,286.00 460.55,286.00 C484.94,286.00 488.46,286.21 494.25,287.99 C504.77,291.25 513.31,300.02 515.83,310.19 C518.25,319.90 516.74,330.08 511.80,337.34 C510.43,339.35 503.03,347.64 495.34,355.75 C463.42,389.44 461.99,391.32 457.38,405.50 C455.42,411.53 454.65,416.39 454.25,425.22 L 453.73 436.93 L 447.07 440.96 C437.14,446.96 427.46,455.35 424.35,460.67 C422.05,464.60 421.57,466.59 421.54,472.45 C421.51,478.43 421.95,480.31 424.45,484.82 C431.66,497.84 445.90,502.64 458.15,496.18 C461.09,494.62 469.84,488.77 477.58,483.18 C485.32,477.58 492.17,473.00 492.80,473.00 C496.59,473.00 498.77,486.31 496.06,492.86 L 494.69 496.17 L 566.25 567.76 L 574.38 567.28 C581.87,566.83 582.92,567.02 587.92,569.66 C590.90,571.23 593.49,572.97 593.67,573.51 C593.85,574.06 589.94,577.43 584.98,581.00 C553.17,603.92 539.74,613.52 528.68,621.28 C515.12,630.79 511.29,634.52 507.62,641.79 C497.43,661.94 505.63,685.44 526.20,695.08 L 533.50 698.50 L 585.00 699.00 C635.32,699.49 636.61,699.55 641.23,701.69 C648.00,704.81 652.52,708.53 655.72,713.60 ZM 427.45 644.53 C426.11,647.54 424.83,650.00 424.58,650.00 C423.93,650.00 409.88,630.23 405.69,623.41 C395.69,607.14 395.77,590.84 405.92,575.93 C410.56,569.10 412.73,567.31 422.00,562.73 C426.45,560.52 427.03,560.50 478.45,560.22 L 530.39 559.93 L 540.20 569.70 C545.59,575.07 550.00,579.92 549.99,580.48 C549.99,581.04 548.41,582.57 546.49,583.88 C544.57,585.19 543.00,586.65 543.00,587.13 C543.00,587.61 542.60,588.00 542.11,588.00 C541.62,588.00 534.31,592.94 525.86,598.97 L 510.50 609.95 L 490.46 609.97 C475.76,609.99 468.85,610.41 464.54,611.53 C448.97,615.59 434.58,628.38 427.45,644.53 ZM 415.69 633.96 C419.99,640.00 423.83,644.96 424.24,644.98 C424.64,644.99 426.39,642.19 428.12,638.75 C432.24,630.56 445.37,617.37 453.13,613.61 C463.19,608.74 467.85,608.02 489.72,608.01 L 509.94 608.00 L 521.22 599.82 C542.28,584.54 547.00,580.95 547.00,580.20 C547.00,579.79 543.26,575.74 538.69,571.19 L 530.39 562.93 L 425.50 563.50 L 420.46 566.16 C414.02,569.56 407.55,576.59 404.20,583.82 C401.92,588.73 401.56,590.85 401.53,599.50 C401.50,608.71 401.75,610.03 404.69,616.23 C406.44,619.94 411.39,627.91 415.69,633.96 ZM 435.08 414.42 C435.04,415.47 435.27,416.06 435.60,415.73 C435.63,415.70 435.66,415.67 435.68,415.64 L 435.66 415.78 L 434.48 426.07 L 429.62 429.23 C426.06,431.55 425.24,432.31 426.11,432.86 C424.62,432.28 421.67,430.19 419.50,428.19 L 415.50 424.50 L 418.95 428.25 C420.28,429.70 421.21,430.96 421.45,431.59 C420.80,430.42 416.18,425.30 410.42,419.40 C395.98,404.59 393.54,400.10 394.21,389.64 C394.47,385.71 395.45,381.01 396.40,379.19 C398.98,374.22 404.77,368.22 409.92,365.19 C413.86,362.87 415.61,362.50 422.50,362.50 C429.48,362.50 431.18,362.87 435.80,365.44 C441.49,368.59 448.00,375.04 448.00,377.53 C448.00,378.36 446.38,382.26 444.41,386.18 C439.48,395.96 437.20,403.41 435.83,414.34 C435.80,414.16 435.75,413.98 435.68,413.81 C435.36,413.01 435.13,413.25 435.08,414.42 ZM 411.77 417.25 C418.21,423.71 424.11,429.00 424.89,429.00 C425.67,429.00 427.82,427.85 429.66,426.45 C432.69,424.14 433.00,423.41 433.01,418.70 C433.04,409.67 436.81,396.31 442.62,384.66 L 446.03 377.83 L 443.09 374.11 C435.60,364.66 421.65,361.79 411.12,367.53 C401.49,372.78 394.96,384.75 396.53,394.29 C397.82,402.11 400.04,405.46 411.77,417.25 ZM 433.86 427.60 C433.42,428.26 432.90,428.94 432.28,429.70 C429.76,432.78 428.92,433.56 427.41,433.27 C428.58,433.28 429.89,432.26 432.15,429.69 C432.83,428.92 433.39,428.24 433.86,427.60 ZM 411.43 447.90 C411.35,448.33 411.23,448.77 411.08,449.21 C410.23,451.64 408.47,454.52 407.03,456.19 C407.32,455.72 407.63,455.25 407.96,454.78 C409.46,452.60 410.95,449.64 411.43,447.90 ZM 696.00 386.40 C696.31,385.93 696.71,385.45 697.17,385.03 C698.45,383.86 700.62,381.85 702.00,380.57 C704.06,378.64 705.85,377.30 707.77,376.36 C704.82,377.90 701.61,380.72 696.00,386.40 ZM 547.67 367.30 C546.79,367.07 546.36,366.93 546.36,366.60 C546.37,366.91 546.80,367.04 547.67,367.23 C548.54,367.43 550.01,367.57 551.15,367.58 C550.77,367.83 550.37,367.94 550.00,367.87 C549.72,367.81 548.68,367.56 547.67,367.30 ZM 717.56 396.76 C717.52,396.80 717.48,396.85 717.45,396.88 C716.55,397.77 714.84,400.30 713.63,402.50 C713.32,403.07 712.98,403.62 712.65,404.11 C713.67,402.42 714.58,400.85 715.01,400.00 C715.68,398.70 716.79,397.29 717.56,396.76 ZM 722.26 412.41 C722.09,412.23 722.00,411.90 722.00,411.44 C722.00,410.56 722.32,410.15 723.16,410.11 C722.44,410.34 722.21,410.99 722.26,412.41 ZM 448.43 405.51 C448.44,405.32 448.47,405.20 448.50,405.16 C448.78,404.89 449.00,405.18 449.00,405.81 C449.00,406.03 449.06,406.20 449.18,406.31 C448.91,406.20 448.71,406.00 448.57,405.70 C448.51,405.59 448.47,405.53 448.43,405.51 ZM 718.26 387.51 C718.69,388.31 718.86,389.94 718.80,391.64 C718.79,391.57 718.79,391.50 718.79,391.43 C718.68,389.73 718.47,388.25 718.26,387.51 ZM 589.03 394.06 C589.23,393.15 590.51,393.07 594.87,393.56 C591.35,393.17 589.48,393.25 589.03,394.06 ZM 580.55 394.41 C580.34,393.19 580.68,392.32 581.65,392.70 C580.98,392.44 580.58,393.25 580.55,394.41 ZM 334.28 461.07 C333.05,460.40 331.86,459.13 331.54,458.12 C331.14,456.87 329.38,455.40 327.21,454.12 C329.28,455.25 331.16,456.94 331.50,457.99 C331.79,458.92 332.96,460.19 334.28,461.07 ZM 665.06 392.15 C663.72,393.00 662.41,394.43 661.97,395.58 C661.59,396.57 661.02,397.27 660.27,397.65 C661.03,397.26 661.60,396.54 662.01,395.48 C662.51,394.16 663.85,392.70 665.06,392.15 ZM 609.41 388.73 C609.13,388.27 610.40,386.93 611.96,385.70 C610.47,387.03 609.24,388.38 609.41,388.73 ZM 666.58 407.07 C665.42,407.25 665.00,407.81 665.00,409.00 C665.00,410.10 664.64,411.00 664.19,411.00 C664.64,411.00 665.00,410.05 665.00,408.89 C665.00,407.51 665.29,407.04 666.58,407.07 ZM 449.43 416.47 C449.07,413.68 448.79,411.10 448.61,409.12 C448.84,410.96 449.15,413.79 449.43,416.47 ZM 421.50 431.83 C421.51,431.94 421.46,432.00 421.35,432.00 C420.78,432.00 419.51,431.11 418.52,430.02 C418.57,430.07 418.63,430.12 418.68,430.17 C419.94,431.36 421.21,432.10 421.50,431.83 ZM 634.74 413.22 C634.68,413.71 634.30,414.04 633.63,414.16 C633.94,413.91 634.31,413.60 634.74,413.22 ZM 698.74 443.50 C698.98,442.77 699.59,442.40 700.73,442.22 C699.88,442.43 699.14,442.91 698.74,443.50 ZM 698.47 366.06 C698.32,366.66 698.01,367.00 697.57,367.00 C696.88,367.00 695.74,368.76 695.03,370.91 C695.74,368.76 696.83,367.00 697.45,367.00 C697.85,367.00 698.23,366.62 698.47,366.06 ZM 455.76 395.17 C455.97,393.17 456.20,391.90 456.50,390.75 C456.80,389.63 456.89,388.93 456.74,388.52 C456.90,388.93 456.81,389.63 456.53,390.75 C456.28,391.73 455.99,393.43 455.76,395.17 ZM 459.35 500.05 C459.59,499.81 459.78,499.59 459.90,499.41 C459.52,500.23 458.42,500.81 456.68,501.14 C457.95,500.82 458.99,500.41 459.35,500.05 ZM 437.04 441.41 C437.30,441.33 437.56,441.28 437.81,441.25 C438.33,441.19 438.76,441.21 439.06,441.27 L 437.75 441.35 C437.50,441.36 437.27,441.38 437.04,441.41 ZM 552.65 365.20 C552.50,364.73 552.46,364.28 552.53,363.96 C552.63,364.18 552.68,364.45 552.68,364.75 C552.68,364.90 552.67,365.05 552.65,365.20 ZM 398.82 429.39 C398.50,428.85 398.35,428.40 398.43,428.13 C398.62,428.58 398.76,429.01 398.82,429.39 ZM 618.02 379.01 C618.25,378.48 618.55,377.97 618.88,377.58 C619.77,376.52 619.95,375.98 619.27,376.37 C618.35,376.91 617.03,376.62 615.93,375.91 C614.90,375.23 614.07,374.18 614.00,373.11 C614.07,374.18 614.90,375.23 615.93,375.91 C617.03,376.62 618.36,376.90 619.27,376.35 C619.98,375.93 619.88,376.38 619.04,377.41 C618.67,377.86 618.31,378.44 618.02,379.01 ZM 550.64 363.09 C549.61,363.33 548.35,364.06 547.58,364.91 C548.56,363.83 549.69,363.22 550.64,363.09 ZM 436.45 417.57 C436.88,414.63 437.76,412.83 439.80,410.25 C437.81,412.77 436.91,414.63 436.45,417.57 ZM 513.81 380.03 C513.93,379.94 514.03,379.88 514.10,379.88 C514.37,379.84 514.74,379.79 515.10,379.74 C514.71,379.86 514.28,379.95 513.81,380.03 ZM 295.88 496.93 C294.43,493.62 293.15,492.00 291.96,492.00 C293.15,492.00 294.45,493.61 295.81,496.77 C295.83,496.82 295.85,496.88 295.88,496.93 ZM 417.91 458.86 C418.13,458.35 418.49,458.18 418.97,458.48 C418.60,458.26 418.17,458.43 417.91,458.86 ZM 764.42 459.53 C764.16,459.05 764.00,458.56 764.00,458.14 C764.00,457.79 763.95,457.44 763.85,457.10 C763.95,457.37 764.00,457.63 764.00,457.86 C764.00,458.40 764.17,458.98 764.42,459.53 ZM 508.92 386.44 C508.95,386.73 508.86,386.86 508.65,386.82 C508.74,386.70 508.83,386.57 508.92,386.44 ZM 511.46 382.77 C511.28,383.11 511.04,383.45 510.76,383.73 C511.00,383.40 511.23,383.08 511.46,382.77 ZM 691.64 390.99 C691.74,390.84 691.86,390.67 692.00,390.50 C692.19,390.27 692.39,390.07 692.59,389.89 C692.17,390.33 691.86,390.69 691.64,390.99 ZM 434.07 443.78 C434.23,443.55 434.37,443.33 434.50,443.12 C434.55,443.03 434.62,442.95 434.68,442.86 C434.53,443.12 434.32,443.43 434.07,443.78 ZM 735.73 363.66 C735.75,364.76 735.99,365.66 736.46,366.59 C735.99,365.68 735.75,364.78 735.73,363.66 ZM 300.84 467.36 C300.76,467.38 300.69,467.36 300.64,467.31 C300.62,467.29 300.61,467.27 300.59,467.26 C300.64,467.28 300.70,467.30 300.75,467.34 C300.78,467.35 300.81,467.36 300.84,467.36 ZM 523.18 387.51 C523.15,387.23 523.13,386.97 523.11,386.74 C523.14,386.98 523.17,387.23 523.18,387.51 ZM 288.78 491.44 C289.65,491.77 290.83,492.00 291.96,492.00 C290.81,492.00 289.65,491.77 288.78,491.44 ZM 405.38 436.45 C405.78,436.88 406.19,437.32 406.58,437.76 C406.19,437.33 405.79,436.89 405.38,436.45 Z" fill="rgb(87,76,70)" data-index="1" style="fill: rgb(0, 0, 0); visibility: visible; opacity: 1;"/>
<path d="M 407.49 438.78 C407.21,438.45 406.90,438.11 406.58,437.76 L 406.57 437.74 C406.18,437.32 405.78,436.89 405.38,436.45 L 405.38 436.45 C403.69,434.63 401.90,432.80 400.79,431.75 C399.94,430.94 399.24,430.09 398.82,429.39 C398.76,429.01 398.62,428.58 398.43,428.13 C398.44,428.10 398.46,428.07 398.47,428.05 C398.80,427.52 397.92,426.34 396.53,425.43 C395.14,424.52 394.00,423.22 394.00,422.54 C394.00,421.86 393.10,420.50 392.00,419.50 C390.52,418.16 390.29,417.36 391.08,416.40 C391.86,415.47 391.79,414.34 390.83,412.38 C389.16,408.95 387.00,408.12 387.00,410.92 C387.00,414.32 385.42,413.29 383.99,408.96 C382.47,404.36 383.41,402.64 388.06,401.50 C390.10,401.01 390.85,401.35 391.72,403.19 C393.01,405.89 396.73,410.67 399.30,412.92 C400.29,413.79 402.30,415.74 403.77,417.25 C405.24,418.76 407.01,420.00 407.71,420.00 C408.41,420.00 410.11,421.80 411.50,424.00 C412.89,426.20 414.55,428.00 415.20,428.00 C415.82,428.00 417.28,428.89 418.52,430.02 C419.51,431.11 420.78,432.00 421.35,432.00 C421.46,432.00 421.51,431.94 421.50,431.83 C421.51,431.83 421.51,431.82 421.51,431.82 C421.54,431.79 421.52,431.71 421.45,431.59 C421.21,430.96 420.28,429.70 418.95,428.25 L 415.50 424.50 L 419.50 428.19 C421.67,430.19 424.62,432.28 426.11,432.86 C426.25,432.95 426.42,433.03 426.63,433.11 C426.89,433.21 427.15,433.26 427.41,433.27 C428.92,433.56 429.76,432.78 432.28,429.70 C432.90,428.94 433.42,428.26 433.86,427.60 C435.49,425.36 435.93,423.62 436.20,419.92 C436.26,419.05 436.34,418.28 436.45,417.57 L 436.45 417.57 C436.91,414.63 437.81,412.77 439.80,410.25 L 439.82 410.22 C442.73,406.56 443.00,405.58 443.00,399.07 C443.00,393.27 443.43,391.31 445.25,388.71 C446.49,386.94 448.03,385.16 448.68,384.74 C449.43,384.26 449.66,382.65 449.30,380.44 C448.86,377.75 449.05,376.98 450.11,377.20 C450.88,377.37 451.83,377.95 452.23,378.50 C453.34,380.00 453.15,386.00 452.00,386.00 C451.45,386.00 451.00,387.35 451.00,389.00 C453.33,392.00 454.00,391.11 454.00,390.00 C454.00,388.82 454.67,388.00 455.62,388.00 C456.23,388.00 456.59,388.14 456.74,388.52 L 456.74 388.52 C456.89,388.93 456.80,389.63 456.50,390.75 C456.20,391.90 455.97,393.17 455.76,395.17 C455.64,396.13 455.53,397.10 455.46,397.97 L 455.11 402.45 L 455.24 402.20 C455.19,402.97 455.14,403.79 455.09,404.67 C455.04,405.58 454.73,406.06 454.40,405.73 C454.30,405.63 454.10,405.57 453.84,405.56 C453.60,405.21 452.96,405.45 451.70,405.92 C450.50,406.38 449.70,406.51 449.18,406.31 C449.06,406.20 449.00,406.03 449.00,405.81 C449.00,405.18 448.78,404.89 448.50,405.16 C448.47,405.20 448.44,405.32 448.43,405.51 C448.25,405.41 448.25,406.39 448.47,408.00 C448.51,408.31 448.56,408.68 448.61,409.12 C448.79,411.10 449.07,413.68 449.43,416.47 C449.49,417.08 449.56,417.69 449.61,418.28 C449.89,421.13 450.22,423.51 450.43,424.39 C451.52,434.01 450.96,435.51 448.24,437.16 C446.73,438.07 444.00,439.77 442.17,440.94 C440.40,442.07 439.21,442.57 439.45,442.09 L 440.50 441.19 L 439.06 441.27 C438.76,441.21 438.33,441.19 437.81,441.25 C437.56,441.28 437.30,441.33 437.04,441.41 C435.87,441.55 435.00,441.86 435.00,442.17 C435.00,442.29 434.89,442.53 434.68,442.86 C434.62,442.95 434.55,443.03 434.50,443.12 C434.37,443.33 434.23,443.55 434.07,443.78 C433.60,444.45 432.97,445.26 432.28,446.07 C431.50,447.01 431.04,447.66 430.88,448.04 C427.78,451.88 424.06,455.92 423.37,455.95 C423.25,455.96 423.11,455.99 422.96,456.04 C422.69,455.81 422.03,456.26 421.01,457.49 C420.33,458.31 419.41,458.76 418.97,458.48 C418.60,458.26 418.17,458.43 417.91,458.86 C417.86,458.95 417.82,459.05 417.78,459.15 C417.35,460.44 417.80,464.07 418.40,465.44 C418.73,467.63 418.98,470.87 419.00,473.50 C419.05,480.65 421.29,486.10 426.58,491.96 C431.86,497.80 437.01,500.15 446.73,501.13 C448.66,501.33 450.39,501.44 451.92,501.46 L 450.50 502.07 L 454.41 501.57 C455.19,501.47 455.97,501.32 456.68,501.14 C458.42,500.81 459.52,500.23 459.90,499.41 C460.10,499.13 460.15,498.92 460.06,498.80 C460.11,497.70 465.09,494.04 477.43,486.00 C478.69,485.17 482.24,482.59 485.31,480.26 C488.46,477.86 491.52,476.26 492.35,476.58 C495.26,477.70 495.89,485.93 493.50,491.65 C492.67,493.63 492.00,495.69 492.00,496.24 C492.00,496.79 508.28,513.60 528.18,533.61 L 564.35 569.98 L 572.57 569.35 C579.81,568.80 581.34,568.99 585.40,570.95 C587.93,572.18 589.98,573.48 589.96,573.84 C589.93,574.20 586.69,576.75 582.76,579.50 C578.82,582.25 571.31,587.67 566.05,591.55 C556.46,598.62 553.90,600.44 529.00,617.78 C512.65,629.18 509.98,631.64 506.21,638.88 C501.96,647.05 500.74,652.68 501.16,662.16 C501.97,679.92 512.86,693.87 529.99,699.06 C536.02,700.89 540.04,701.05 585.00,701.30 C629.51,701.55 633.94,701.73 638.80,703.46 C645.33,705.77 651.86,711.38 655.07,717.43 C656.41,719.94 657.95,721.87 658.50,721.71 C660.52,721.11 664.20,711.89 664.73,706.09 C665.42,698.39 663.75,691.81 659.44,685.26 C655.49,679.26 650.03,675.43 641.66,672.82 C636.73,671.28 632.28,671.00 612.95,671.00 L 590.07 671.00 L 586.55 667.91 C580.88,662.93 579.82,654.81 583.89,647.68 C584.77,646.12 591.75,640.50 599.38,635.18 C624.95,617.35 631.52,610.29 636.71,595.06 C640.32,584.46 639.31,565.20 634.68,556.37 C633.97,555.00 617.46,537.93 598.00,518.45 C578.54,498.96 562.49,482.11 562.32,481.01 C562.02,479.05 562.55,479.00 582.88,479.00 C612.28,479.00 627.15,476.10 640.36,467.78 C643.74,465.66 647.29,463.66 648.25,463.34 C649.21,463.03 650.00,462.37 650.00,461.88 C650.00,461.40 650.64,461.00 651.42,461.00 C652.20,461.00 652.98,460.65 653.17,460.21 C653.35,459.78 657.10,456.88 661.50,453.77 C674.60,444.49 677.09,442.66 681.40,439.14 C688.22,433.56 699.52,422.55 699.25,421.75 C699.11,421.34 699.42,421.00 699.93,421.00 C700.45,421.00 701.15,420.11 701.49,419.02 C701.84,417.93 703.90,415.19 706.06,412.94 C706.39,412.59 706.70,412.26 706.99,411.94 C707.63,411.57 709.19,409.60 710.70,407.25 C711.34,406.25 712.02,405.16 712.65,404.11 C712.98,403.62 713.32,403.07 713.63,402.50 C714.84,400.30 716.55,397.77 717.45,396.88 C717.48,396.85 717.52,396.80 717.56,396.76 C717.60,396.73 717.64,396.70 717.68,396.68 C718.59,396.14 718.96,394.48 718.80,391.64 C718.86,389.94 718.69,388.31 718.26,387.51 C718.17,387.19 718.08,387.01 718.00,387.01 C717.98,387.01 717.95,387.03 717.91,387.08 C717.82,387.03 717.73,387.00 717.63,387.00 C717.15,387.00 717.26,386.40 717.87,385.66 C718.48,384.92 718.69,384.02 718.32,383.66 C717.96,383.30 718.15,383.00 718.75,383.00 C719.37,383.00 719.83,381.03 719.83,378.38 L 719.83 373.76 L 717.34 374.09 L 717.50 373.96 L 713.50 374.59 C711.34,374.93 709.61,375.39 707.77,376.36 C705.85,377.30 704.06,378.64 702.00,380.57 C700.62,381.85 698.45,383.86 697.17,385.03 C696.71,385.45 696.31,385.93 696.00,386.40 C694.99,387.42 693.90,388.54 692.72,389.75 C692.68,389.80 692.63,389.84 692.59,389.89 C692.39,390.07 692.19,390.27 692.00,390.50 C691.86,390.67 691.74,390.84 691.64,390.99 C691.24,391.51 691.15,391.82 691.33,391.90 C691.36,391.97 691.42,392.00 691.51,392.00 C692.82,392.00 687.61,395.69 685.25,396.43 C684.01,396.82 683.00,397.54 683.00,398.04 C683.00,398.54 681.68,399.63 680.08,400.46 C678.47,401.29 675.76,403.25 674.05,404.81 C672.30,406.41 671.02,407.14 669.55,407.27 C669.37,407.05 668.75,407.00 667.62,407.00 C667.22,407.00 666.87,407.02 666.58,407.07 C665.29,407.04 665.00,407.51 665.00,408.89 C665.00,410.04 664.64,410.99 664.20,411.00 L 664.19 411.00 L 664.19 411.00 C663.75,411.00 662.51,411.70 661.44,412.54 C661.18,412.76 661.00,412.92 660.92,413.02 C660.34,413.56 660.34,413.75 661.00,413.43 C664.33,411.83 659.88,415.18 644.80,425.62 C625.37,439.08 621.64,441.69 617.76,441.93 C616.83,441.99 615.89,441.91 614.73,441.81 L 614.60 441.80 C608.59,441.30 603.00,437.97 603.00,434.90 C603.00,433.82 603.79,432.64 604.75,432.27 C605.71,431.91 607.06,431.06 607.74,430.39 C609.94,428.22 630.91,413.98 631.72,414.11 C631.82,414.12 631.91,414.14 632.00,414.15 C632.01,415.13 632.29,415.22 633.63,414.16 C634.30,414.04 634.68,413.71 634.74,413.22 L 634.85 413.13 C636.10,412.04 636.78,411.24 636.91,410.83 C637.42,410.46 637.97,409.98 638.50,409.41 C639.87,407.92 641.00,407.01 641.00,407.39 C641.00,407.42 641.01,407.45 641.02,407.47 C641.01,407.49 641.00,407.51 641.00,407.52 C641.00,408.30 644.77,406.19 645.50,404.99 C645.84,404.45 646.88,403.98 647.81,403.96 C648.74,403.94 651.06,402.59 652.96,400.96 C654.87,399.33 657.47,398.00 658.74,398.00 C659.31,398.00 659.83,397.89 660.27,397.65 L 660.28 397.65 C661.02,397.27 661.59,396.57 661.97,395.58 C662.41,394.43 663.72,393.00 665.06,392.15 C665.12,392.12 665.17,392.10 665.23,392.07 C666.78,391.46 669.29,389.23 670.37,387.75 C670.75,387.65 671.00,387.33 671.00,386.85 C671.00,386.10 671.96,384.88 673.14,384.15 C678.22,380.97 682.16,379.00 683.41,379.00 L 683.41 379.00 C684.15,379.00 685.31,378.34 685.98,377.53 C686.65,376.72 688.67,375.78 690.47,375.44 C693.18,374.93 693.96,374.16 695.03,370.91 C695.74,368.76 696.88,367.00 697.57,367.00 C698.01,367.00 698.32,366.66 698.47,366.06 C698.60,365.75 698.70,365.39 698.73,365.00 C698.81,363.90 698.75,363.00 698.59,363.00 C698.59,363.00 698.59,363.00 698.58,363.00 C698.76,361.88 699.25,360.74 699.87,360.11 C700.77,359.21 702.34,357.18 703.36,355.60 C704.38,354.03 705.51,353.17 705.86,353.69 C705.86,353.70 705.87,353.70 705.87,353.71 C706.72,354.97 710.95,354.63 713.88,353.06 C715.25,352.33 716.52,352.18 716.88,352.70 C717.67,353.86 722.51,355.66 726.81,356.40 C729.48,356.86 730.56,356.50 732.43,354.48 C734.48,352.27 734.89,352.16 736.03,353.54 C737.02,354.73 737.07,356.15 736.27,359.65 C735.89,361.33 735.70,362.59 735.73,363.67 C735.75,364.78 735.99,365.68 736.46,366.59 C736.47,366.61 736.48,366.62 736.49,366.64 L 736.51 366.68 C736.78,367.21 737.04,367.61 737.29,367.89 C737.69,368.39 738.04,368.62 738.22,368.45 C738.88,367.78 736.57,381.99 734.96,388.50 C734.27,391.25 732.18,397.37 730.31,402.10 C727.63,408.89 726.91,410.33 725.34,410.34 C724.99,410.13 724.54,410.00 724.04,410.00 C723.69,410.00 723.40,410.03 723.16,410.11 C722.32,410.15 722.00,410.56 722.00,411.44 C722.00,411.90 722.09,412.23 722.26,412.41 C722.27,412.57 722.28,412.74 722.29,412.93 C722.39,414.35 722.48,415.05 722.77,415.19 C722.67,415.62 722.60,416.06 722.55,416.47 C721.98,421.69 706.05,440.79 701.29,442.12 L 701.09 442.15 C700.97,442.17 700.84,442.19 700.73,442.22 C699.59,442.40 698.98,442.77 698.74,443.50 C698.57,443.73 698.47,443.99 698.43,444.25 C698.34,444.87 698.36,445.32 698.47,445.59 C697.47,448.36 691.09,453.57 673.50,466.21 C647.31,485.03 636.56,490.35 618.21,493.56 C612.59,494.54 608.00,495.66 608.00,496.04 C608.00,496.42 632.80,521.76 663.11,552.35 C664.80,554.07 666.45,555.73 668.05,557.35 L 668.05 557.35 C714.05,603.78 720.57,610.36 726.38,609.79 C727.54,609.68 728.68,609.28 730.09,608.85 C737.46,606.65 741.83,597.36 738.84,590.24 C738.10,588.48 728.62,578.09 717.76,567.16 C701.87,551.16 697.51,546.18 695.42,541.60 C690.27,530.35 690.47,515.30 695.93,503.50 C697.59,499.90 699.64,496.69 700.47,496.37 C701.31,496.05 701.77,495.44 701.51,495.01 C701.24,494.58 703.38,492.44 706.26,490.25 C713.11,485.06 735.91,470.00 736.92,470.00 C737.35,470.00 738.95,468.85 740.47,467.44 C744.82,463.41 758.62,454.00 760.18,454.00 C760.58,454.00 760.97,454.08 761.35,454.24 C761.52,454.37 761.72,454.52 761.95,454.68 C762.81,455.28 763.55,456.25 763.85,457.10 C763.95,457.44 764.00,457.79 764.00,458.14 C764.00,458.56 764.16,459.05 764.42,459.53 C764.91,460.59 765.73,461.48 766.29,461.52 C771.79,466.27 771.07,485.27 764.78,497.20 C759.94,506.38 756.04,510.07 738.54,522.03 C729.45,528.25 721.22,534.21 720.26,535.27 C718.56,537.15 719.05,537.74 736.53,554.85 C759.41,577.25 760.50,579.05 760.50,594.50 C760.50,604.72 760.29,605.92 757.53,611.37 C750.91,624.42 738.00,631.66 722.90,630.79 C710.64,630.08 707.65,628.03 680.95,602.00 C668.25,589.62 657.51,579.37 657.08,579.22 C656.65,579.06 656.02,581.76 655.68,585.22 C654.24,600.08 647.63,615.65 638.46,625.78 C635.51,629.04 627.23,636.16 620.05,641.60 C612.88,647.05 607.01,652.00 607.00,652.61 C607.00,653.36 613.32,653.88 626.75,654.25 C644.40,654.73 647.21,655.05 653.12,657.22 C667.45,662.49 677.45,670.99 683.53,683.06 C688.76,693.44 689.97,700.10 689.99,718.55 L 690.00 734.60 L 684.14 735.81 C674.49,737.80 668.11,742.81 650.22,762.45 L 649.61 763.11 C637.58,776.32 633.27,781.05 633.31,785.73 C633.34,788.42 634.80,791.10 637.06,795.35 C641.04,802.85 641.39,804.11 641.43,811.08 C641.46,816.33 641.00,819.37 639.92,821.00 L 638.36 823.35 L 608.93 823.69 C592.74,823.87 578.52,824.24 577.33,824.51 C573.43,825.39 568.96,830.14 565.43,837.14 C563.53,840.91 561.81,844.00 561.61,844.00 C561.40,844.00 554.32,836.55 545.87,827.44 C527.48,807.61 526.01,805.44 526.01,797.95 C526.00,790.89 529.46,785.12 535.52,782.10 C539.44,780.14 541.34,780.00 564.15,780.00 C591.64,780.00 595.70,779.37 607.25,773.30 C612.62,770.48 616.35,767.33 623.80,759.35 C629.09,753.69 634.21,747.58 635.17,745.78 C638.74,739.08 636.76,728.83 630.82,723.28 C625.43,718.25 622.90,718.00 577.62,717.98 C531.07,717.96 527.55,717.62 515.45,711.90 C510.39,709.51 506.45,706.56 500.98,701.06 C489.02,689.03 483.99,676.58 484.01,659.04 C484.02,648.64 485.37,642.25 489.38,633.48 C490.81,630.35 491.74,627.39 491.43,626.89 C490.60,625.55 480.37,625.85 472.87,627.44 C459.27,630.32 450.14,637.45 444.23,649.79 C441.18,656.17 440.72,658.11 440.62,665.29 C440.55,669.81 440.85,675.13 441.27,677.13 L 442.05 680.77 L 437.43 681.46 C430.52,682.49 425.63,684.96 413.50,693.54 C407.45,697.82 398.64,703.95 393.93,707.16 C389.22,710.37 383.51,714.58 381.25,716.52 C376.40,720.67 371.58,729.78 370.00,737.78 C367.14,752.24 362.57,758.92 354.49,760.44 L 350.67 761.15 L 329.08 739.68 C317.21,727.87 306.42,717.66 305.10,716.99 C301.55,715.19 295.54,715.59 288.37,718.12 C284.88,719.35 281.82,720.16 281.58,719.91 C281.14,719.48 282.20,696.51 283.54,677.26 C284.28,666.61 286.10,662.97 292.53,659.22 C295.80,657.31 297.52,656.98 302.29,657.36 C309.42,657.92 311.10,659.12 328.57,676.09 C342.53,689.65 348.21,693.37 357.57,695.10 C372.23,697.81 391.38,686.28 396.96,671.39 C401.93,658.10 400.43,647.53 391.36,632.05 C384.70,620.67 382.00,611.25 382.00,599.39 C382.00,589.78 383.35,582.56 386.48,575.46 C388.82,570.15 395.67,560.00 396.91,560.00 C397.31,560.00 399.74,557.99 402.31,555.52 C407.72,550.34 414.02,546.85 418.97,546.29 C420.88,546.08 422.78,545.36 423.18,544.70 C423.74,543.80 434.91,543.42 467.46,543.20 C500.28,542.98 511.00,542.61 511.00,541.71 C511.00,540.08 478.85,508.00 477.21,508.00 C476.49,508.00 474.24,509.12 472.21,510.50 C470.19,511.88 467.97,513.00 467.27,513.00 C466.57,513.00 466.00,513.44 466.00,513.97 C466.00,515.76 454.66,518.33 447.00,518.28 C441.94,518.25 436.65,517.38 430.73,515.62 C413.96,510.61 406.69,512.17 390.98,524.17 C386.31,527.72 382.05,530.81 381.50,531.03 C380.95,531.25 379.38,532.42 378.00,533.63 C375.16,536.13 362.65,545.15 353.58,551.23 C350.24,553.48 342.20,560.52 335.72,566.89 C329.24,573.25 322.94,579.02 321.72,579.69 C317.91,581.81 307.27,581.32 303.12,578.83 C298.07,575.79 289.19,568.21 287.28,565.31 C285.74,562.95 285.83,562.75 290.30,558.19 C297.76,550.60 298.08,549.16 297.96,523.72 C297.90,511.55 297.80,505.81 297.32,502.21 C298.17,503.19 297.76,501.31 295.95,497.10 C295.92,497.04 295.90,496.99 295.88,496.93 C295.85,496.88 295.83,496.82 295.81,496.77 C294.45,493.61 293.15,492.00 291.96,492.00 L 291.96 492.00 C290.83,492.00 289.65,491.77 288.78,491.44 C287.77,491.06 287.16,490.55 287.43,490.11 C287.66,489.73 286.93,489.43 285.79,489.43 C285.58,489.43 285.39,489.43 285.23,489.43 C284.94,489.41 284.64,489.39 284.32,489.38 C282.40,489.31 280.08,488.50 279.16,487.57 C277.61,486.00 277.80,485.62 282.00,481.85 C284.48,479.63 290.09,474.37 294.48,470.16 C298.87,465.95 300.95,464.16 299.09,466.19 C296.25,469.31 296.04,469.80 297.82,469.34 L 297.84 469.33 C299.03,469.02 300.00,468.34 300.00,467.82 C300.00,467.37 300.25,467.15 300.59,467.26 C300.61,467.27 300.62,467.29 300.64,467.31 C300.69,467.36 300.76,467.38 300.84,467.36 C301.31,467.41 302.34,466.14 303.23,464.39 C303.33,464.20 303.42,464.01 303.52,463.82 C306.01,459.65 310.39,455.50 313.92,454.03 C315.62,453.33 317.00,452.36 317.00,451.88 C317.00,450.04 321.37,451.13 325.33,453.09 C325.75,453.35 326.26,453.62 326.83,453.91 C326.96,453.98 327.09,454.05 327.21,454.12 C329.38,455.40 331.14,456.87 331.54,458.12 C331.86,459.13 333.05,460.40 334.28,461.07 C334.54,461.24 334.80,461.40 335.07,461.54 C336.68,462.37 338.00,463.79 338.00,464.69 C338.00,465.59 338.27,466.06 338.60,465.73 C338.61,465.72 338.62,465.71 338.63,465.69 C339.81,469.46 340.00,476.57 340.00,491.61 C340.00,515.87 340.34,518.18 344.39,521.16 C349.10,524.64 360.48,522.71 363.00,518.00 C363.59,516.90 364.73,516.00 365.54,516.00 C366.34,516.00 367.00,515.63 367.00,515.18 C367.00,514.39 386.50,500.00 387.56,500.00 C388.76,500.00 395.91,491.64 397.03,488.94 C397.70,487.32 398.66,486.00 399.18,486.00 C399.70,486.00 399.86,485.59 399.55,485.09 C399.24,484.58 399.49,484.00 400.11,483.80 C400.79,483.57 401.42,479.86 401.69,474.57 C401.97,468.94 402.70,464.86 403.69,463.36 C403.76,463.25 403.82,463.14 403.89,463.02 L 403.90 463.00 C404.49,462.17 404.98,460.95 404.98,460.28 C404.99,459.74 405.85,458.05 407.03,456.19 C408.47,454.52 410.23,451.64 411.08,449.21 C411.23,448.77 411.35,448.33 411.43,447.90 C411.47,447.76 411.50,447.62 411.53,447.50 C411.95,445.43 412.06,444.81 411.49,445.33 C411.42,444.84 411.29,444.37 411.11,443.92 C411.04,443.75 410.95,443.57 410.85,443.38 C410.78,442.84 409.37,440.90 407.49,438.78 ZM 427.45 644.53 C434.58,628.38 448.97,615.59 464.54,611.53 C468.85,610.41 475.76,609.99 490.46,609.97 L 510.50 609.95 L 525.86 598.97 C534.31,592.94 541.62,588.00 542.11,588.00 C542.60,588.00 543.00,587.61 543.00,587.13 C543.00,586.65 544.57,585.19 546.49,583.88 C548.41,582.57 549.99,581.04 549.99,580.48 C550.00,579.92 545.59,575.07 540.20,569.70 L 530.39 559.93 L 478.45 560.22 C427.03,560.50 426.45,560.52 422.00,562.73 C412.73,567.31 410.56,569.10 405.92,575.93 C395.77,590.84 395.69,607.14 405.69,623.41 C409.88,630.23 423.93,650.00 424.58,650.00 C424.83,650.00 426.11,647.54 427.45,644.53 ZM 502.11 403.50 C502.35,402.14 502.68,400.50 502.99,399.12 C503.64,398.11 504.06,395.91 503.51,395.01 C503.16,394.45 503.36,394.00 503.94,394.00 C504.52,394.00 505.00,393.38 505.00,392.62 C505.00,391.86 505.70,390.67 506.55,389.96 C507.05,389.54 507.41,388.95 507.57,388.38 C507.90,387.92 508.26,387.40 508.65,386.82 C508.86,386.86 508.95,386.73 508.92,386.44 C509.12,386.14 509.33,385.83 509.54,385.50 C509.95,384.89 510.36,384.29 510.76,383.73 C511.04,383.45 511.28,383.11 511.46,382.77 C512.47,381.43 513.34,380.41 513.81,380.03 C514.28,379.95 514.71,379.86 515.10,379.74 C515.39,379.70 515.67,379.66 515.89,379.62 C516.38,379.56 517.61,378.51 518.64,377.31 C521.25,374.23 524.42,373.91 524.81,376.68 C524.98,377.87 525.77,379.39 526.56,380.05 C528.43,381.60 528.40,383.00 526.50,383.00 C525.67,383.00 525.00,382.55 525.00,382.00 C525.00,380.76 521.99,380.72 520.06,381.94 C518.88,382.69 518.86,383.12 519.93,384.41 C520.64,385.27 521.63,385.73 522.11,385.43 C522.59,385.13 522.95,385.70 523.11,386.75 C523.13,386.97 523.15,387.23 523.18,387.51 C523.21,388.16 523.18,388.93 523.07,389.75 C522.97,390.55 523.13,390.95 523.56,390.94 C523.61,392.18 523.36,393.28 522.93,393.54 C522.42,393.86 521.04,396.35 519.87,399.08 C518.72,401.75 517.08,404.34 516.18,404.92 C515.21,404.48 514.58,406.99 514.32,412.27 L 514.02 418.50 L 514.69 415.57 C514.70,416.50 514.71,417.52 514.73,418.62 C515.06,436.64 517.57,444.48 526.50,455.45 C528.98,458.49 531.00,461.23 531.00,461.54 C531.00,461.85 529.44,462.75 527.53,463.55 C523.88,465.08 520.15,465.26 516.00,464.11 C514.45,463.68 513.38,462.57 513.18,461.17 C513.08,460.53 512.87,460.01 512.50,459.59 C512.33,459.30 512.11,459.05 511.85,458.89 C510.28,457.89 509.23,457.69 508.89,458.07 C506.96,457.42 505.90,455.87 503.43,450.71 C501.00,445.64 500.33,443.25 501.00,442.00 C501.34,441.36 501.42,440.58 501.20,439.58 C501.12,438.99 500.98,438.38 500.78,437.81 C500.25,436.26 499.79,435.50 499.49,435.43 C498.30,432.65 498.00,429.60 498.00,421.79 C498.00,415.85 498.40,411.00 498.88,411.00 C499.86,411.00 501.03,408.44 501.57,405.80 C501.79,405.03 501.97,404.24 502.11,403.50 ZM 589.03 394.06 C588.65,394.74 589.27,395.94 590.75,397.78 C591.21,398.36 591.55,398.82 591.84,399.15 C591.92,399.85 590.63,400.00 587.50,400.00 C585.00,400.00 583.00,399.53 583.00,398.94 C583.00,398.65 582.88,398.45 582.70,398.38 C582.55,398.18 582.33,397.91 582.06,397.58 C581.23,396.58 580.72,395.38 580.55,394.41 C580.58,393.25 580.98,392.44 581.65,392.70 C582.39,392.98 583.47,392.06 584.14,390.60 C584.79,389.17 585.71,388.00 586.19,388.00 C586.67,388.00 588.64,386.42 590.57,384.50 C592.49,382.58 594.73,381.00 595.53,381.00 C596.34,381.00 597.00,380.36 597.00,379.57 C597.00,378.27 599.31,377.01 602.83,376.39 C603.57,376.26 604.69,375.46 605.33,374.62 C606.44,373.17 611.07,371.00 613.07,371.00 C613.58,371.00 614.00,371.88 614.00,372.96 C614.00,373.04 614.00,373.11 614.01,373.18 C614.02,373.33 614.05,373.48 614.10,373.63 C614.10,373.64 614.10,373.65 614.11,373.66 C614.37,374.53 615.07,375.34 615.92,375.90 L 615.93 375.91 C617.03,376.62 618.35,376.91 619.27,376.37 C619.95,375.98 619.77,376.52 618.88,377.58 C618.55,377.97 618.25,378.48 618.02,379.01 C617.67,379.68 617.42,380.35 617.35,380.83 C617.22,381.73 616.62,382.63 616.02,382.83 C615.13,383.12 613.42,384.40 611.96,385.70 C610.40,386.93 609.13,388.27 609.41,388.73 C609.41,388.74 609.42,388.75 609.43,388.76 C609.43,388.76 609.43,388.77 609.43,388.77 C609.44,388.77 609.44,388.77 609.44,388.78 C610.32,389.65 606.65,391.93 604.31,391.97 C604.09,391.97 603.87,391.99 603.65,392.03 C602.76,392.07 601.79,392.54 601.43,393.11 C600.97,393.86 598.78,394.01 594.87,393.56 C590.51,393.07 589.23,393.15 589.03,394.06 ZM 629.28 370.17 C628.53,369.71 628.43,368.92 629.01,367.99 C629.62,366.99 629.30,365.89 628.00,364.50 C626.95,363.38 626.41,362.03 626.80,361.48 C627.85,360.00 633.78,356.00 634.91,356.00 C635.45,356.00 637.12,354.86 638.62,353.47 C640.12,352.08 641.61,351.34 641.92,351.82 C642.24,352.30 643.80,353.32 645.39,354.10 C646.98,354.87 648.33,355.93 648.39,356.46 C648.51,357.50 641.94,362.27 641.28,361.62 C641.06,361.40 641.56,359.59 642.39,357.61 C643.86,354.10 643.84,354.00 641.70,354.01 C638.46,354.03 635.23,361.02 636.84,364.55 C638.37,367.92 638.35,368.00 635.83,368.00 C634.63,368.00 632.94,368.65 632.06,369.45 C631.18,370.25 629.93,370.57 629.28,370.17 ZM 537.13 365.08 C535.32,363.96 545.46,355.58 547.62,356.41 C548.92,356.91 548.99,357.31 547.99,358.51 C547.31,359.33 546.15,360.00 545.41,360.00 C544.67,360.00 543.59,360.89 543.01,361.98 C541.64,364.54 538.73,366.07 537.13,365.08 ZM 724.42 339.66 C723.77,337.96 727.56,330.00 729.02,330.00 C730.41,330.00 730.24,332.19 728.52,336.31 C726.78,340.45 725.22,341.73 724.42,339.66 ZM 732.04 350.05 C730.79,349.26 730.85,348.82 732.44,347.06 C734.37,344.93 738.00,344.24 738.00,346.00 C738.00,346.86 734.45,351.03 733.75,350.98 C733.61,350.98 732.84,350.55 732.04,350.05 ZM 693.90 384.09 C695.52,383.06 694.67,379.98 692.78,380.03 C690.72,380.08 687.74,382.77 688.46,383.93 C689.25,385.22 691.98,385.30 693.90,384.09 ZM 550.64 363.09 C551.52,362.97 552.24,363.26 552.53,363.96 C552.46,364.28 552.50,364.73 552.65,365.20 C552.50,366.16 551.87,367.11 551.15,367.58 C550.01,367.57 548.54,367.43 547.67,367.23 C546.80,367.04 546.37,366.91 546.36,366.60 C546.36,366.29 546.77,365.80 547.58,364.91 C548.35,364.06 549.61,363.33 550.64,363.09 ZM 448.86 399.50 C448.73,397.02 448.50,395.00 448.35,395.00 C448.20,395.00 447.56,395.96 446.93,397.12 C446.07,398.74 446.10,399.82 447.07,401.62 C448.85,404.96 449.12,404.63 448.86,399.50 ZM 609.80 379.79 C610.16,377.93 607.07,376.53 605.68,377.92 C605.02,378.58 605.13,379.45 605.99,380.49 C607.52,382.33 609.37,381.99 609.80,379.79 ZM 380.61 393.42 C379.66,390.95 379.89,386.18 381.00,385.50 C381.62,385.12 382.00,386.82 382.00,389.94 C382.00,395.20 381.64,396.11 380.61,393.42 ZM 677.22 335.85 C677.46,335.11 678.47,334.34 679.45,334.15 C680.59,333.93 681.07,334.29 680.78,335.15 C680.54,335.89 679.53,336.66 678.55,336.85 C677.41,337.07 676.93,336.71 677.22,335.85 ZM 702.87 367.45 C703.18,365.82 703.01,365.74 701.62,366.90 C699.70,368.49 699.47,370.34 701.25,369.75 C701.94,369.52 702.66,368.49 702.87,367.45 ZM 486.00 357.58 C486.00,356.71 486.71,356.00 487.58,356.00 C488.45,356.00 488.99,356.53 488.77,357.19 C488.15,359.04 486.00,359.35 486.00,357.58 ZM 435.08 414.42 C435.13,413.25 435.36,413.01 435.68,413.81 C435.75,413.98 435.80,414.16 435.83,414.34 C435.78,414.77 435.73,415.20 435.68,415.64 C435.66,415.67 435.63,415.70 435.60,415.73 C435.27,416.06 435.04,415.47 435.08,414.42 ZM 694.79 390.14 C694.97,390.02 695.19,389.87 695.44,389.70 C695.34,390.09 695.12,390.43 694.80,390.62 C694.27,390.95 694.06,390.91 694.21,390.53 C694.39,390.41 694.59,390.28 694.79,390.14 ZM 708.33 407.41 C708.56,407.16 708.90,406.93 709.25,406.77 C709.09,407.06 708.95,407.33 708.81,407.57 C708.79,407.58 708.77,407.59 708.75,407.60 C708.02,408.02 707.85,407.94 708.33,407.41 ZM 581.49 398.26 C581.67,398.35 581.83,398.44 581.98,398.51 L 581.98 398.52 C581.41,398.86 581.01,398.78 581.09,398.32 C581.11,398.24 581.12,398.14 581.13,398.05 C581.25,398.13 581.38,398.20 581.49,398.26 ZM 397.94 431.22 C398.03,431.32 398.12,431.41 398.22,431.51 C397.90,431.41 397.61,431.18 397.41,430.86 C397.32,430.71 397.25,430.58 397.21,430.48 C397.45,430.73 397.69,430.97 397.94,431.22 ZM 511.95 380.30 C511.80,380.48 511.66,380.65 511.51,380.82 C511.52,380.60 511.68,380.41 511.95,380.30 ZM 634.45 411.63 C634.47,411.42 634.59,411.34 634.80,411.40 C634.70,411.46 634.60,411.53 634.50,411.59 ZM 507.51 386.42 C507.42,386.51 507.46,386.45 507.51,386.42 Z" fill="rgb(235,189,116)" data-index="2" style="fill: rgb(0, 0, 0); visibility: visible; opacity: 1;"/>

</g>
</svg>